<svg width="32" height="32" viewBox="0 0 32 32" fill="none" xmlns="http://www.w3.org/2000/svg">
<path d="M16 18.3913L10.927 23.4783C10.607 23.7971 10.1988 23.9565 9.70261 23.9565C9.20638 23.9565 8.79826 23.7971 8.47826 23.4783C8.15942 23.1594 8 22.7536 8 22.2609C8 21.7681 8.15942 21.3623 8.47826 21.0435L13.5652 15.9565L8.47826 10.927C8.15942 10.607 8 10.1988 8 9.70261C8 9.20754 8.15942 8.79942 8.47826 8.47826C8.7971 8.15942 9.2029 8 9.69565 8C10.1884 8 10.5942 8.15942 10.913 8.47826L16 13.5652L21.0296 8.47826C21.3496 8.15942 21.7577 8 22.2539 8C22.749 8 23.1571 8.15942 23.4783 8.47826C23.8261 8.82609 24 9.23884 24 9.71652C24 10.1942 23.8261 10.593 23.4783 10.913L18.3913 15.9565L23.4783 21.0296C23.7971 21.3496 23.9565 21.7577 23.9565 22.2539C23.9565 22.7501 23.7971 23.1583 23.4783 23.4783C23.1304 23.8261 22.7177 24 22.24 24C21.7623 24 21.3635 23.8261 21.0435 23.4783L16 18.3913Z" fill="black"/>
</svg>
