<svg width="24" height="24" viewBox="0 0 24 24" fill="none" xmlns="http://www.w3.org/2000/svg">
<path d="M8 18C7.71667 18 7.47917 17.9042 7.2875 17.7125C7.09583 17.5208 7 17.2833 7 17V15H20V6H22C22.2833 6 22.5208 6.09583 22.7125 6.2875C22.9042 6.47917 23 6.71667 23 7V22L19 18H8ZM3 17V3C3 2.71667 3.09583 2.47917 3.2875 2.2875C3.47917 2.09583 3.71667 2 4 2H17C17.2833 2 17.5208 2.09583 17.7125 2.2875C17.9042 2.47917 18 2.71667 18 3V12C18 12.2833 17.9042 12.5208 17.7125 12.7125C17.5208 12.9042 17.2833 13 17 13H7L3 17ZM16 11V4H5V11H16Z" fill="#161616"/>
</svg>
