<svg width="154" height="154" viewBox="0 0 154 154" fill="none" xmlns="http://www.w3.org/2000/svg">
<path d="M134.384 43.6529L134.085 44.1426C131.556 48.2791 127.001 50.7646 122.205 50.4443C121.589 50.4043 120.976 50.318 120.37 50.1856C116.014 49.2369 112.229 45.929 110.671 41.7002C109.753 39.2146 109.506 36.3533 107.757 34.3759C105.481 31.8041 101.603 31.7087 98.1967 31.8041C94.7871 31.8996 90.9063 31.7949 88.6425 29.2139C87.2257 27.5969 86.7791 25.3023 86.9023 23.1401C87.2257 17.4236 91.2266 12.3231 96.3025 9.79754C101.378 7.27194 107.347 7.06558 112.888 8.2021C120.653 9.79446 128.026 14.1188 132.446 20.7777C136.866 27.4367 137.959 36.4919 134.384 43.6498V43.6529Z" fill="#BCF5CC" fill-opacity="0.3"/>
<path d="M30.5814 130.435C36.7901 130.435 41.8234 125.402 41.8234 119.193C41.8234 112.984 36.7901 107.951 30.5814 107.951C24.3726 107.951 19.3394 112.984 19.3394 119.193C19.3394 125.402 24.3726 130.435 30.5814 130.435Z" fill="#BCF5CC" fill-opacity="0.3"/>
<path d="M144.911 139.459C144.911 139.503 114.502 139.54 77.0031 139.54C39.5041 139.54 9.08911 139.503 9.08911 139.459C9.08911 139.416 39.4887 139.379 77.0031 139.379C114.518 139.379 144.911 139.416 144.911 139.459Z" fill="#263238"/>
<path d="M93.7643 43.9147L42.1158 48.5717C35.232 49.1938 30.1901 55.6618 30.8553 63.023L33.5781 93.2039C34.2403 100.565 40.3602 106.026 47.244 105.407L67.2917 103.599C67.8985 103.543 68.496 103.811 68.8872 104.313L74.5575 111.53C75.3952 112.596 76.9629 112.457 77.5974 111.256L81.8848 103.14C82.1835 102.576 82.7225 102.207 83.3293 102.151L98.8925 100.747C105.776 100.125 110.818 93.6567 110.153 86.2955L107.43 56.1146C106.768 48.7534 100.648 43.2925 93.7643 43.9116V43.9147Z" fill="white"/>
<path d="M93.7644 43.9145C93.7644 43.9145 93.9862 43.9022 94.4236 43.8837C94.5314 43.8806 94.6546 43.8745 94.7901 43.8683C94.9256 43.8621 95.0734 43.8529 95.2336 43.8683C95.557 43.8929 95.9297 43.9114 96.3547 43.9515C96.5641 43.9884 96.7859 44.0285 97.02 44.0685C97.2541 44.1147 97.5036 44.1393 97.753 44.2225C98.0056 44.2964 98.2705 44.3703 98.5446 44.4504C98.8218 44.5243 99.0928 44.6599 99.3824 44.7677C100.528 45.242 101.797 45.9627 103.001 47.0469C104.206 48.1249 105.342 49.5694 106.174 51.3558C106.275 51.5806 106.377 51.8085 106.479 52.0365C106.586 52.2644 106.648 52.5139 106.737 52.7541C106.817 52.9974 106.91 53.2407 106.981 53.4933C107.042 53.7489 107.101 54.0046 107.162 54.2664C107.409 55.3074 107.492 56.4193 107.597 57.5589C108.013 62.1265 108.484 67.3286 109.007 73.0759C109.269 75.9496 109.54 78.9618 109.827 82.1003C109.897 82.8857 109.968 83.6773 110.042 84.4781C110.079 84.8785 110.116 85.2789 110.153 85.6855L110.209 86.2922L110.236 86.9082C110.316 88.5499 110.119 90.2377 109.602 91.8639C109.087 93.4871 108.256 95.0486 107.129 96.4008C106.001 97.756 104.575 98.9017 102.934 99.6871C102.117 100.091 101.24 100.371 100.343 100.58C100.122 100.651 99.8875 100.66 99.6626 100.7L98.9758 100.799C98.5169 100.848 98.0549 100.885 97.5929 100.928C95.7418 101.095 93.863 101.267 91.9626 101.437C90.0623 101.609 88.1373 101.782 86.1907 101.957C85.2174 102.046 84.2411 102.136 83.2586 102.225C82.7873 102.284 82.353 102.561 82.0789 102.949C81.9434 103.14 81.8417 103.374 81.7216 103.589L81.3736 104.252C80.4404 106.02 79.4979 107.803 78.5462 109.605C78.309 110.054 78.0687 110.507 77.8316 110.96C77.7115 111.182 77.6037 111.425 77.425 111.628C77.2556 111.832 77.0431 112.004 76.7998 112.124C76.3162 112.361 75.728 112.367 75.2352 112.149C74.9857 112.041 74.7701 111.872 74.5883 111.671C74.4066 111.471 74.2619 111.265 74.0986 111.062C72.8143 109.429 71.5207 107.781 70.2178 106.121C69.8913 105.705 69.5649 105.29 69.2384 104.874C69.0752 104.667 68.9119 104.452 68.7456 104.255C68.5762 104.064 68.3668 103.91 68.1357 103.805C67.9017 103.7 67.6491 103.651 67.3935 103.657C67.1378 103.673 66.8637 103.703 66.6019 103.725C66.0691 103.774 65.5362 103.82 65.0034 103.87C60.7314 104.255 56.3979 104.646 52.0119 105.043C50.9155 105.142 49.8221 105.24 48.7318 105.339C47.6445 105.434 46.548 105.564 45.4546 105.484C45.1805 105.462 44.9064 105.45 44.6384 105.419L43.8315 105.274C43.699 105.25 43.5635 105.231 43.4311 105.197L43.0399 105.083L42.2576 104.852L41.503 104.544L41.1272 104.39L40.7669 104.199L40.0492 103.82L39.3716 103.374C37.5668 102.179 36.1469 100.491 35.1335 98.6307C35.0689 98.5137 34.998 98.4028 34.9426 98.2827L34.7793 97.9192L34.456 97.1923C34.3605 96.9459 34.2835 96.6934 34.1972 96.4439C34.1202 96.1913 34.0124 95.948 33.9601 95.6893C33.689 94.6729 33.5381 93.6257 33.4519 92.5939C32.7065 84.3179 31.9889 76.3377 31.3051 68.7331C31.1357 66.8328 30.9663 64.954 30.8 63.1029C30.6275 61.2426 30.8 59.3699 31.3359 57.6328C32.3831 54.1493 34.8255 51.2203 37.8901 49.708L38.463 49.4246L39.0575 49.2029C39.2546 49.1289 39.4517 49.0519 39.6519 48.9842L40.2618 48.8271C40.465 48.7778 40.6683 48.7193 40.8716 48.6731L41.4907 48.5838L42.1067 48.4945L42.7196 48.439C44.352 48.2943 45.9505 48.1495 47.5213 48.0078C50.6598 47.7275 53.6721 47.4565 56.5488 47.1978C68.0495 46.1721 77.3542 45.3405 83.7883 44.7677C87.0038 44.4843 89.4986 44.2656 91.1957 44.1147C92.0396 44.0408 92.6864 43.9853 93.1207 43.9484C93.555 43.9114 93.7768 43.896 93.7768 43.896C93.7768 43.896 93.555 43.9207 93.1207 43.9638C92.6864 44.0038 92.0396 44.0654 91.1957 44.1455C89.5017 44.3026 87.0069 44.5305 83.7914 44.8293C77.3603 45.4145 68.0557 46.2645 56.558 47.3117C53.6844 47.5735 50.6721 47.8446 47.5336 48.131C45.9659 48.2727 44.3643 48.4175 42.7319 48.5653L42.119 48.6207L41.5092 48.7101L40.8962 48.7994C40.696 48.8456 40.4958 48.901 40.2956 48.9503L39.6919 49.1043C39.4948 49.169 39.3008 49.2491 39.1037 49.3199L38.5154 49.5417L37.9487 49.8219C34.9179 51.3188 32.5032 54.2171 31.4683 57.6698C30.9386 59.3915 30.7692 61.2426 30.9417 63.0875C31.108 64.9386 31.2805 66.8174 31.4499 68.7177C32.1367 76.3223 32.8574 84.3025 33.6059 92.5754C33.6921 93.6103 33.843 94.6359 34.111 95.6462C34.1603 95.9018 34.2681 96.142 34.3451 96.3915C34.4313 96.6379 34.5052 96.8874 34.6007 97.1307L34.921 97.8484L35.0812 98.2087C35.1366 98.3258 35.2075 98.4397 35.2721 98.5537C36.2762 100.392 37.6776 102.059 39.4609 103.238L40.1293 103.679L40.8377 104.055L41.1919 104.242L41.5646 104.393L42.3099 104.695L43.083 104.923L43.4711 105.037C43.6005 105.068 43.736 105.086 43.8684 105.114L44.6631 105.259C44.931 105.293 45.2021 105.302 45.47 105.324C46.548 105.407 47.6322 105.277 48.7225 105.182C49.8128 105.083 50.9062 104.985 52.0027 104.886C56.3886 104.492 60.7222 104.101 64.9942 103.716C65.527 103.666 66.0598 103.62 66.5927 103.571C66.8606 103.549 67.1194 103.519 67.3935 103.503C67.6738 103.494 67.951 103.553 68.2066 103.663C68.4591 103.777 68.6871 103.947 68.8719 104.153C69.0474 104.366 69.2045 104.572 69.3708 104.781C69.6973 105.197 70.0238 105.613 70.3503 106.029C71.6562 107.689 72.9498 109.337 74.2311 110.969C74.3912 111.169 74.5483 111.388 74.7146 111.57C74.881 111.751 75.0812 111.912 75.3091 112.007C75.7618 112.21 76.2978 112.204 76.7413 111.986C76.963 111.875 77.1571 111.718 77.3142 111.53C77.4743 111.345 77.579 111.114 77.7022 110.886C77.9425 110.433 78.1796 109.98 78.4168 109.531C79.3685 107.729 80.3141 105.943 81.2473 104.178L81.5984 103.516C81.7185 103.297 81.8171 103.072 81.968 102.856C82.2668 102.434 82.738 102.136 83.2524 102.071C84.238 101.982 85.2174 101.892 86.1907 101.803C88.1373 101.628 90.0623 101.455 91.9626 101.283C93.863 101.113 95.7387 100.944 97.5929 100.777C98.0549 100.734 98.5169 100.697 98.9758 100.648L99.6565 100.55C99.8813 100.509 100.112 100.5 100.331 100.432C101.218 100.226 102.084 99.9489 102.89 99.5516C104.514 98.7755 105.924 97.642 107.039 96.3053C108.157 94.9655 108.98 93.4224 109.491 91.8147C110.005 90.2038 110.202 88.5314 110.122 86.9051L110.098 86.2953L110.042 85.6885C110.005 85.285 109.971 84.8816 109.934 84.4812C109.864 83.6804 109.793 82.8888 109.722 82.1034C109.442 78.9649 109.171 75.9527 108.912 73.079C108.398 67.3287 107.932 62.1265 107.523 57.5589C107.421 56.4162 107.338 55.3105 107.095 54.2756C107.033 54.0169 106.975 53.7613 106.913 53.5087C106.839 53.2592 106.75 53.0159 106.67 52.7726C106.583 52.5323 106.522 52.2859 106.414 52.058C106.312 51.8301 106.211 51.6022 106.112 51.3804C105.287 49.6033 104.159 48.1649 102.967 47.0869C101.772 46.0027 100.513 45.282 99.37 44.8046C99.0805 44.6937 98.8126 44.5582 98.5354 44.4843C98.2612 44.4042 97.9963 44.3272 97.7469 44.2533C97.4974 44.1671 97.2479 44.1424 97.0169 44.0962C96.7828 44.0531 96.5611 44.0131 96.3547 43.9761C95.9327 43.933 95.5601 43.9145 95.2367 43.8868C95.0765 43.8683 94.9287 43.8745 94.7931 43.8806C94.6576 43.8837 94.5375 43.8899 94.4266 43.8929C93.9923 43.9053 93.7675 43.9083 93.7675 43.9083L93.7644 43.9145Z" fill="#263238"/>
<g opacity="0.2">
<path d="M100.282 69.4172C100.149 66.3804 99.5979 63.3466 98.9233 60.3251C98.7663 59.6567 98.6092 58.9884 98.4521 58.3231C98.2889 57.6609 98.101 57.0079 97.9254 56.3519C97.5866 55.0398 97.1985 53.7524 96.8043 52.4803C96.0466 49.9208 94.8885 46.8254 93.9953 44.4138C92.4276 43.8532 90.4256 43.7701 88.054 44.0935L70.729 46.5944C67.1716 50.081 63.8945 52.776 61.1872 54.7688C61.1502 54.5285 61.1133 54.2914 61.0794 54.0511L46.2153 60.821C43.4217 62.5642 41.9834 66.1863 43.6589 70.3628L45.3036 74.915L46.4432 77.2558C47.7676 79.9724 50.4133 81.343 52.8866 80.7948L52.7326 80.8564C52.7942 80.8348 52.8558 80.8102 52.9174 80.7886C53.3517 80.69 53.7798 80.536 54.1956 80.3143C54.4974 80.2003 54.7962 80.0894 55.0919 79.9755L67.3071 95.6896C68.2003 96.8385 69.8543 96.8015 70.7044 95.6188L74.6375 90.1395C75.3767 89.1077 75.1858 87.6324 74.2125 86.8531C71.6623 84.8203 67.1162 80.918 65.4561 77.7579C65.3945 77.6254 64.914 76.5474 64.8616 76.0423C65.6378 75.722 66.4355 75.3955 67.2548 75.0598C68.1572 74.8719 69.0812 74.6933 70.0299 74.5208C71.9887 74.1758 74.0493 73.8678 76.1991 73.7262C78.3459 73.5783 80.5819 73.7262 82.8765 74.0188C87.4811 74.5886 92.2767 75.7867 97.3433 76.9448L97.5897 76.9879L97.8731 76.9756C98.064 76.9725 98.2273 76.8616 98.3997 76.8C98.5445 76.686 98.6985 76.5782 98.834 76.452L99.1851 76.0177C99.5671 75.3801 99.8535 74.6717 99.9859 73.9325C100.291 72.4634 100.365 70.9357 100.279 69.4203L100.282 69.4172Z" fill="black"/>
</g>
<path d="M49.668 58.9975C49.668 58.9975 55.8865 56.6321 65.5423 48.4608C72.6017 42.4856 77.9732 35.5741 80.3509 32.2908C81.4936 30.7139 83.6311 30.3381 85.1619 31.5116C87.5243 33.3226 90.9338 38.0412 95.1226 50.3335C102.508 72.0013 98.5445 76.4796 96.7427 76.2671C94.9409 76.0515 82.9597 72.8021 75.232 72.9715C67.5042 73.1439 55.9173 76.3163 55.9173 76.3163L49.668 59.0006V58.9975Z" fill="#E0E0E0"/>
<path d="M49.668 58.9974C49.668 58.9974 49.7081 59.099 49.782 59.2962C49.8559 59.4964 49.9637 59.7889 50.1054 60.1739C50.3887 60.9501 50.8045 62.0897 51.3466 63.5712C52.4246 66.5341 53.9923 70.8554 55.9697 76.2947L55.9081 76.2639C59.293 75.3645 63.1553 74.4651 67.4489 73.7383C69.5956 73.3841 71.8533 73.0699 74.2125 72.9467C76.5749 72.8173 79.0297 72.9929 81.5368 73.3009C84.0439 73.6151 86.6095 74.0709 89.2275 74.5976C90.5365 74.8594 91.8609 75.1458 93.1946 75.4415C93.8629 75.5894 94.5344 75.7372 95.2089 75.885C95.5477 75.959 95.8865 76.0298 96.2253 76.0976C96.3947 76.1314 96.5641 76.1561 96.7335 76.1838C96.8967 76.1961 97.06 76.1869 97.2171 76.1314C97.5343 76.0329 97.8053 75.808 98.0302 75.5524C98.2519 75.2906 98.4275 74.9888 98.5784 74.6777C98.8679 74.0432 99.0404 73.3563 99.1575 72.6572C99.3854 71.2558 99.3761 69.8113 99.2899 68.3667C99.0928 65.4746 98.523 62.5671 97.8146 59.6658C97.177 57.0601 96.4132 54.5191 95.6031 52.0335C94.79 49.548 93.9276 47.1209 92.9944 44.7709C92.0581 42.4208 91.0632 40.1416 89.9175 37.9949C89.3477 36.923 88.7317 35.8851 88.0695 34.8995C87.4042 33.9169 86.6742 32.9868 85.8365 32.1921C85.6301 31.9889 85.4083 31.8041 85.1866 31.6254C85.0788 31.5299 84.9556 31.4622 84.8416 31.379C84.7184 31.3113 84.5983 31.2373 84.4689 31.1819C83.9577 30.9571 83.3909 30.8493 82.8365 30.9109C82.2852 30.9663 81.7493 31.1542 81.2996 31.4653L81.1302 31.5823L80.9731 31.7148C80.8653 31.7979 80.7729 31.8995 80.6775 31.9981C80.4957 32.1983 80.3356 32.4201 80.1723 32.6449C78.8695 34.4251 77.542 36.1068 76.2115 37.693C73.5534 40.8685 70.8861 43.6651 68.3113 46.0645C63.1184 50.8231 58.4306 54.1156 55.0765 56.1699C53.3948 57.1925 52.0396 57.9071 51.1064 58.3568C50.6413 58.5847 50.2779 58.7417 50.0345 58.8465C49.7881 58.9512 49.6619 58.9943 49.6619 58.9943C49.7081 58.9727 49.8066 58.9296 50.0284 58.8311C50.2717 58.7233 50.629 58.56 51.0941 58.3259C52.0211 57.867 53.3702 57.1432 55.0457 56.1145C56.7181 55.0827 58.7171 53.7368 60.9501 52.0582C61.5045 51.6362 62.0866 51.205 62.6656 50.7337C63.2508 50.2717 63.8545 49.7943 64.4613 49.2831C65.6902 48.2821 66.9468 47.1763 68.2343 45.9813C70.803 43.5789 73.4579 40.7823 76.1098 37.6068C77.4373 36.0206 78.7586 34.3389 80.0584 32.5618C80.2185 32.34 80.3818 32.1121 80.5727 31.9026C80.6713 31.801 80.7668 31.6963 80.8777 31.607L81.0409 31.4683L81.2165 31.3482C81.6877 31.0248 82.2452 30.8277 82.8211 30.7692C83.3971 30.7045 83.9915 30.8154 84.5275 31.0495C84.663 31.108 84.7893 31.185 84.9155 31.2558C85.0357 31.3421 85.165 31.416 85.2728 31.5115C85.5007 31.6932 85.7256 31.8811 85.935 32.0874C86.7851 32.8944 87.5212 33.8307 88.1896 34.8163C88.8579 35.8081 89.4739 36.846 90.0468 37.924C91.1957 40.0769 92.1936 42.3623 93.133 44.7154C94.0693 47.0716 94.9348 49.4987 95.7479 51.9873C96.5579 54.4759 97.3249 57.02 97.9624 59.6319C98.6708 62.5394 99.2437 65.4531 99.4408 68.3606C99.5301 69.8113 99.5363 71.2681 99.3053 72.6849C99.1852 73.3933 99.0096 74.0925 98.7109 74.7454C98.5538 75.0657 98.3721 75.3799 98.138 75.654C97.9008 75.9251 97.6113 76.1653 97.2571 76.2793C97.0846 76.3409 96.8906 76.3563 96.7089 76.3378C96.5364 76.307 96.3608 76.2823 96.1883 76.2485C95.8465 76.1807 95.5046 76.1099 95.1689 76.0359C94.4943 75.8881 93.8229 75.7372 93.1545 75.5924C91.8178 75.2967 90.4996 75.0103 89.1906 74.7454C86.5757 74.2187 84.0131 73.7598 81.5121 73.4426C79.0112 73.1315 76.5657 72.9529 74.2125 73.0792C71.8594 73.1993 69.6079 73.5103 67.4612 73.8584C63.1738 74.576 59.3084 75.4692 55.9266 76.3593L55.8804 76.3717L55.865 76.3286C53.9061 70.8677 52.3507 66.5311 51.285 63.5589C50.7553 62.0774 50.3487 60.9378 50.0715 60.1616C49.936 59.7797 49.8313 59.4871 49.7635 59.29C49.6957 59.0929 49.6619 58.9974 49.6619 58.9974H49.668Z" fill="#263238"/>
<g opacity="0.3">
<path d="M93.8168 51.6113C97.6729 63.1706 98.8248 73.2607 96.3855 74.1477C93.9461 75.0378 88.8426 66.3861 84.9833 54.8269C81.1272 43.2676 79.9752 33.1775 82.4146 32.2905C84.854 31.4004 89.9575 40.0521 93.8168 51.6113Z" fill="black"/>
</g>
<path d="M82.9504 48.0234C82.9504 48.0234 88.7532 44.9619 91.134 53.0993C93.5148 61.2366 87.6105 61.9604 87.6105 61.9604C85.553 57.8517 83.9853 53.2225 82.9504 48.0234Z" fill="white"/>
<path d="M43.8068 67.8988L46.1938 76.2271C46.5018 77.2989 47.5244 78.0012 48.6332 77.9057C49.394 77.841 50.1362 78.149 50.6229 78.7373L64.3135 95.1907C65.2683 96.3395 67.0424 96.3025 67.951 95.1198L72.1613 89.6405C72.9529 88.6087 72.7496 87.1334 71.7055 86.3541C68.6132 84.0472 62.7704 79.341 61.7971 76.0361C61.178 73.9325 61.2581 72.9007 61.5168 72.3987C61.8587 71.7395 61.948 70.9788 61.6554 70.2981L59.5426 65.3609C59.1483 64.4369 58.2028 63.8701 57.2018 63.9564L45.8427 64.9358C44.3828 65.0621 43.4003 66.4881 43.8038 67.8988H43.8068Z" fill="#86B282"/>
<path opacity="0.3" d="M50.666 78.7866L53.207 81.842L62.3423 77.2713C62.3423 77.2713 61.637 75.836 61.6955 75.4048L50.666 78.7866Z" fill="black"/>
<path d="M39.0021 69.8669L40.7638 74.4191L41.9835 76.7599C43.6559 79.9693 47.3088 81.3091 50.2903 79.8122L65.9952 73.8986C61.2982 68.0404 58.7664 61.1381 57.6453 53.5552L41.7371 60.325C38.7464 62.0683 37.2064 65.6904 39.0021 69.8669Z" fill="#86B282"/>
<path d="M56.2131 60.7621C56.2593 60.8729 53.3672 62.2405 49.7543 63.8174C46.1384 65.3944 43.1693 66.5802 43.1231 66.4693C43.0769 66.3584 45.9659 64.9909 49.5819 63.4139C53.1947 61.837 56.1638 60.6512 56.2131 60.7621Z" fill="#263238"/>
<path d="M57.1955 63.1244C57.2417 63.2353 54.3496 64.6028 50.7368 66.1797C47.1208 67.7567 44.1517 68.9425 44.1055 68.8316C44.0593 68.7207 46.9484 67.3532 50.5643 65.7763C54.1771 64.1993 57.1462 63.0135 57.1955 63.1244Z" fill="#263238"/>
<path d="M58.1782 65.4872C58.2244 65.598 55.3323 66.9656 51.7194 68.5425C48.1035 70.1195 45.1375 71.3053 45.0882 71.1944C45.042 71.0835 47.931 69.716 51.547 68.139C55.1598 66.5621 58.1289 65.3763 58.1782 65.4872Z" fill="#263238"/>
<path d="M59.1606 67.8495C59.2068 67.9603 56.3147 69.3279 52.7019 70.9048C49.0859 72.4818 46.1199 73.6676 46.0706 73.5567C46.0244 73.4458 48.9165 72.0783 52.5294 70.5013C56.1422 68.9244 59.1113 67.7386 59.1606 67.8495Z" fill="#263238"/>
<path d="M65.9982 73.8955C65.9982 73.8955 65.9427 73.9294 65.8288 73.9787C65.6994 74.031 65.5331 74.0988 65.3329 74.185C64.8801 74.3637 64.258 74.6131 63.4941 74.915C61.9418 75.5248 59.7951 76.3687 57.4142 77.2773C55.0334 78.189 52.8651 78.9775 51.2881 79.5227C50.4996 79.7968 49.859 80.0093 49.4124 80.151C49.2029 80.2157 49.0335 80.2711 48.898 80.3111C48.781 80.345 48.7163 80.3635 48.7163 80.3573C48.7163 80.3512 48.7748 80.3265 48.8888 80.2803C49.0212 80.2311 49.1875 80.1695 49.3908 80.0925C49.8497 79.9262 50.4781 79.6951 51.2481 79.4149C52.8158 78.8451 54.9779 78.0381 57.3557 77.1264C59.7273 76.224 61.8741 75.4078 63.451 74.8072C64.221 74.5238 64.8493 74.2928 65.3083 74.1265C65.5146 74.0557 65.684 73.9941 65.8165 73.951C65.9335 73.9109 65.9951 73.8955 65.9982 73.8986V73.8955Z" fill="#263238"/>
<path d="M93.5673 72.7218C93.5673 72.7218 93.5458 72.6972 93.5088 72.6448C93.4688 72.5863 93.4195 72.5093 93.3548 72.4107C93.2162 72.1951 93.0222 71.8933 92.7758 71.5083C92.283 70.7167 91.5838 69.5648 90.7676 68.111C89.1414 65.2066 87.0747 61.0732 85.3468 56.2869C84.4782 53.8968 83.776 51.5714 83.2308 49.437C83.0861 48.9042 82.966 48.3806 82.8489 47.8724C82.7319 47.3642 82.621 46.8714 82.5101 46.394C82.2976 45.4392 82.0943 44.549 81.9218 43.7328C81.5738 42.1035 81.3582 40.7699 81.2535 39.8428C81.198 39.3808 81.1672 39.0204 81.1488 38.774C81.1426 38.6601 81.1364 38.5677 81.1303 38.4968C81.1303 38.4352 81.1272 38.4014 81.1303 38.4014C81.1303 38.4014 81.1395 38.4322 81.1457 38.4938L81.1796 38.771C81.2073 39.0143 81.2473 39.3746 81.312 39.8336C81.4352 40.7545 81.6693 42.082 82.0296 43.7051C82.2144 44.5182 82.4177 45.4053 82.6364 46.3601C82.7473 46.8375 82.8643 47.3303 82.9814 47.8354C83.1015 48.3436 83.2247 48.8641 83.3694 49.3939C83.9238 51.5222 84.6261 53.8383 85.4916 56.2253C87.2164 61.0024 89.2615 65.1358 90.86 68.0494C91.6608 69.5063 92.3446 70.6674 92.822 71.4682C93.056 71.8594 93.2439 72.1674 93.3733 72.3861C93.4318 72.4846 93.478 72.5647 93.515 72.6263C93.5458 72.6818 93.5612 72.7095 93.5581 72.7126L93.5673 72.7218Z" fill="#263238"/>
<path d="M96.7121 107.772L94.8055 107.856L87.9464 122.744L77.0986 128.153L77.6161 133.737C77.6161 133.737 90.971 131.273 94.3004 129.409C97.6299 127.546 101.874 115.439 101.874 115.439C101.896 115.525 97.3619 107.779 97.3619 107.779" fill="#FFBF9D"/>
<path d="M77.7331 121.38L76.344 119.917C76.0761 119.744 75.7619 119.658 75.4447 119.667L71.0403 119.8C70.2087 119.883 69.4602 120.336 69.0013 121.035L67.3997 123.76C67.3997 123.76 66.3217 125.627 66.4603 126.08C66.6667 126.763 67.3905 126.625 67.3905 126.625C67.3905 126.625 67.5445 127.487 67.8309 127.663C68.3114 127.955 68.8997 127.731 68.8997 127.731C69.0598 128.06 69.4017 128.282 69.7682 128.254C69.8421 128.248 69.9191 128.236 69.9961 128.211C70.5197 128.054 70.7538 127.041 70.7538 127.041L72.9868 126.628C72.9868 126.628 76.1931 128.772 77.3265 130.179C78.4569 131.584 81.4199 130.512 81.4199 130.512L82.5287 125.214L77.7362 121.38H77.7331Z" fill="#FFBF9D"/>
<path d="M74.4867 122.014C74.4898 122.045 74.1325 122.113 73.5227 122.174C72.9159 122.242 72.0566 122.267 71.0895 122.393L71.1942 122.316C71.0371 122.661 70.8431 123.018 70.6213 123.369C69.9376 124.463 69.1306 125.316 68.5023 125.876C67.8709 126.434 67.415 126.693 67.3966 126.665C67.3719 126.631 67.7816 126.317 68.3668 125.732C68.9489 125.147 69.7158 124.29 70.3842 123.222C70.5998 122.877 70.7907 122.532 70.9478 122.202L70.9817 122.134L71.0525 122.125C72.0474 122.014 72.9036 122.023 73.5104 122.005C74.1171 121.993 74.4806 121.98 74.4836 122.014H74.4867Z" fill="#FF9A6C"/>
<path d="M74.5885 124.114C74.5947 124.142 74.2928 124.256 73.76 124.336C73.2271 124.413 72.4602 124.438 71.604 124.262L71.7611 124.173C71.6717 124.435 71.567 124.703 71.4407 124.971C70.9757 125.947 70.3196 126.692 69.7837 127.145C69.2478 127.601 68.8535 127.792 68.8381 127.764C68.8135 127.727 69.1646 127.481 69.6513 127C70.1379 126.523 70.7416 125.787 71.1913 124.851C71.3145 124.592 71.4161 124.333 71.5085 124.084L71.5485 123.97L71.6656 123.994C73.3134 124.361 74.5854 124.031 74.5947 124.114H74.5885Z" fill="#FF9A6C"/>
<path d="M80.1785 125.202C78.8695 124.592 77.5605 123.985 76.2484 123.375C75.7033 123.123 75.1366 122.864 74.539 122.867C73.8922 122.867 73.2916 123.175 72.7188 123.471C72.0134 123.834 71.3081 124.201 70.6059 124.564C70.4919 124.623 70.3656 124.694 70.3256 124.817C70.2732 124.977 70.3903 125.143 70.5073 125.263C71.5638 126.332 73.461 126.409 74.6006 125.43C74.9394 126.354 75.2906 127.296 75.925 128.045C76.5595 128.796 77.5482 129.326 78.5153 129.147" fill="#FFBF9D"/>
<path d="M78.5153 129.15C78.5153 129.15 78.4815 129.169 78.4106 129.184C78.3398 129.203 78.232 129.215 78.0903 129.221C77.81 129.227 77.3819 129.175 76.9076 128.935C76.4363 128.701 75.922 128.276 75.5154 127.666C75.0996 127.059 74.7916 126.295 74.4867 125.473L74.6838 125.525C74.1048 126.037 73.2609 126.308 72.3954 126.24C71.9642 126.209 71.5238 126.092 71.1203 125.883C70.9232 125.772 70.726 125.649 70.5536 125.491C70.4673 125.411 70.378 125.341 70.301 125.233C70.2271 125.131 70.147 124.983 70.1901 124.805C70.224 124.66 70.3379 124.567 70.4242 124.512C70.5166 124.453 70.5967 124.416 70.6798 124.373C70.8431 124.287 71.0063 124.204 71.1696 124.121C71.493 123.954 71.8133 123.788 72.1274 123.628C72.7557 123.317 73.3502 122.95 74.0216 122.803C74.6992 122.639 75.3645 122.849 75.885 123.086C76.4179 123.329 76.8953 123.563 77.3388 123.776C78.1889 124.192 78.8911 124.534 79.4301 124.795C79.9198 125.042 80.1878 125.187 80.1816 125.205C80.1724 125.223 79.889 125.109 79.3839 124.894C78.8357 124.651 78.1211 124.336 77.2556 123.955C76.8029 123.751 76.3162 123.533 75.7926 123.298C75.2721 123.077 74.6807 122.901 74.074 123.055C73.4672 123.194 72.882 123.554 72.2506 123.871C71.9365 124.035 71.6192 124.201 71.2927 124.37C71.1295 124.453 70.9663 124.54 70.803 124.623C70.6367 124.709 70.4611 124.792 70.455 124.875C70.4211 124.977 70.572 125.159 70.7353 125.288C70.8893 125.43 71.0679 125.544 71.2466 125.645C71.6131 125.836 72.0165 125.944 72.4139 125.978C73.2085 126.046 73.9877 125.799 74.5206 125.344L74.6561 125.227L74.7146 125.396C75.0072 126.221 75.2967 126.97 75.6817 127.561C76.0575 128.156 76.5288 128.568 76.9723 128.815C77.8778 129.311 78.5215 129.11 78.5123 129.16L78.5153 129.15Z" fill="#FF9A6C"/>
<path d="M132.822 75.4446C133.062 72.457 133.734 69.5063 133.823 66.5095C133.912 63.5127 133.336 60.3464 131.396 58.061C129.456 55.7757 125.889 54.71 123.332 56.2747L122.658 58.7849C122.837 70.3841 121.91 82.0943 122.088 93.6936C122.113 95.2182 123.249 96.6719 123.844 98.0733C124.441 99.4747 125.747 100.688 127.272 100.697C129.265 100.71 130.706 98.7848 131.451 96.9368C134.156 90.2347 132.246 82.6456 132.822 75.4415V75.4446Z" fill="#263238"/>
<path d="M126.68 59.4472C126.295 58.6772 125.901 57.898 125.301 57.282C124.7 56.666 123.853 56.2317 123 56.3364C122.599 56.3857 122.181 56.5828 122.02 56.9555C121.86 57.3282 122.113 57.8548 122.516 57.8487L122.596 57.9288C123.437 58.7819 124.297 59.6197 125.171 60.4359C125.39 60.6422 125.621 60.8517 125.901 60.9595C126.185 61.0673 126.536 61.0488 126.748 60.8394C127.102 60.4882 126.902 59.8938 126.677 59.4472H126.68Z" fill="#86B282"/>
<path d="M128.171 62.4962C125.436 58.6493 121.577 56.2808 116.874 55.8835C114.222 55.6586 113.085 56.136 111.139 56.5241C109.192 56.9091 107.397 57.8177 106.146 59.3608C104.661 61.1934 103.377 63.2693 102.961 65.5885C102.536 67.9725 102.558 70.3348 102.884 72.3029C103.279 74.693 104.649 78.3983 105.937 80.4495L109.978 81.2226C113.356 81.5676 116.781 81.9125 120.132 81.3643C123.483 80.8161 126.81 79.2576 128.772 76.4856C131.498 72.6356 130.903 66.3401 128.168 62.4962H128.171Z" fill="#263238"/>
<path d="M122.716 62.0865L114.764 58.2827L112.611 58.3874C107.806 58.0794 104.132 63.1522 103.836 67.0422C103.507 71.3635 103.279 76.6518 103.747 79.8858C104.692 86.3877 110.125 87.2932 110.125 87.2932C110.125 87.2932 109.78 90.6997 109.596 92.8496L122.171 92.7941L124.728 64.4304C124.768 63.2446 123.893 62.2282 122.716 62.0896V62.0865Z" fill="#FFBF9D"/>
<path d="M113.461 79.0355C113.44 78.6936 113.273 78.3826 113.045 78.1608C112.596 77.7173 111.896 77.631 111.361 77.9483C110.825 78.2686 110.483 78.9739 110.532 79.6546C110.794 80.0704 111.216 80.3661 111.699 80.4431C111.773 80.4554 111.85 80.4616 111.927 80.4646C112.297 80.48 112.682 80.3815 112.981 80.1289C113.282 79.8764 113.486 79.4575 113.458 79.0355H113.461Z" fill="#FF9A6C"/>
<path d="M105.188 72.9497C105.167 73.3901 105.521 73.769 105.98 73.7998C106.436 73.8306 106.827 73.501 106.848 73.0606C106.87 72.6201 106.516 72.2413 106.057 72.2105C105.598 72.1797 105.21 72.5123 105.188 72.9497Z" fill="#263238"/>
<path d="M105.154 69.3031C105.256 69.4139 105.894 68.955 106.787 68.9673C107.68 68.9673 108.333 69.4386 108.432 69.3277C108.481 69.2784 108.376 69.0813 108.093 68.8719C107.812 68.6593 107.335 68.453 106.778 68.4468C106.22 68.4437 105.749 68.6409 105.475 68.8472C105.198 69.0536 105.102 69.2507 105.151 69.3L105.154 69.3031Z" fill="#263238"/>
<path d="M110.412 76.689C110.418 76.6397 109.861 76.535 108.961 76.4087C108.733 76.381 108.518 76.3348 108.481 76.1777C108.428 76.0114 108.527 75.7681 108.641 75.5032C108.863 74.9519 109.097 74.3759 109.34 73.7691C110.31 71.3021 111.019 69.2723 110.917 69.2354C110.819 69.1984 109.95 71.1665 108.977 73.6336C108.743 74.2435 108.518 74.8225 108.305 75.3769C108.216 75.6356 108.062 75.9282 108.176 76.2732C108.234 76.4457 108.401 76.5719 108.549 76.612C108.693 76.6582 108.823 76.6613 108.937 76.6705C109.842 76.7321 110.406 76.7413 110.412 76.6921V76.689Z" fill="#263238"/>
<path d="M110.116 87.2844C110.116 87.2844 114.478 87.6232 118.836 85.0791C118.836 85.0791 116.461 89.5482 109.975 88.8552L110.113 87.2844H110.116Z" fill="#FF9A6C"/>
<path d="M113.039 77.3419C112.894 77.3326 112.879 78.3028 112.038 78.9835C111.2 79.6642 110.165 79.541 110.156 79.6765C110.141 79.7381 110.384 79.8675 110.821 79.8859C111.25 79.9075 111.878 79.7751 112.392 79.3623C112.907 78.9465 113.131 78.3829 113.168 77.9856C113.212 77.579 113.107 77.3388 113.039 77.3419Z" fill="#263238"/>
<path d="M105.669 66.1985C105.817 66.4203 106.503 66.2817 107.304 66.3587C108.108 66.411 108.764 66.6544 108.943 66.4603C109.023 66.3648 108.937 66.1523 108.663 65.9275C108.391 65.7057 107.92 65.4963 107.369 65.4532C106.818 65.41 106.322 65.5394 106.023 65.718C105.718 65.8967 105.601 66.0938 105.666 66.2016L105.669 66.1985Z" fill="#263238"/>
<path d="M114.327 73.19C114.32 73.6304 113.942 73.9877 113.483 73.9877C113.024 73.9877 112.657 73.6366 112.663 73.1962C112.67 72.7557 113.048 72.3984 113.507 72.3984C113.966 72.3984 114.333 72.7526 114.327 73.19Z" fill="#263238"/>
<path d="M117.25 69.7777C117.142 69.8793 116.535 69.3834 115.639 69.3403C114.746 69.2849 114.065 69.713 113.976 69.5959C113.929 69.5436 114.046 69.3557 114.342 69.1617C114.635 68.9676 115.124 68.7921 115.682 68.8229C116.239 68.8537 116.698 69.0816 116.957 69.3064C117.222 69.5313 117.305 69.7315 117.253 69.7777H117.25Z" fill="#263238"/>
<path d="M116.908 66.8821C116.723 67.0761 116.042 66.8297 115.214 66.7804C114.385 66.7034 113.674 66.8389 113.523 66.6203C113.458 66.5125 113.578 66.3153 113.895 66.1398C114.207 65.9642 114.721 65.8318 115.291 65.8749C115.86 65.9211 116.344 66.1275 116.621 66.3523C116.905 66.5771 116.991 66.7897 116.908 66.8851V66.8821Z" fill="#263238"/>
<path d="M122.88 75.2165C122.886 74.7329 123.462 73.6026 123.939 73.5317C125.217 73.35 127.512 73.4825 127.49 76.7195C127.463 81.1424 123.028 80.203 123.018 80.0767C123.012 79.9782 122.852 76.8859 122.88 75.2165Z" fill="#FFBF9D"/>
<path d="M124.25 78.4657C124.269 78.4503 124.327 78.5211 124.457 78.5797C124.583 78.6382 124.802 78.6813 125.033 78.5951C125.501 78.4257 125.898 77.6865 125.926 76.8887C125.941 76.4853 125.858 76.1033 125.716 75.783C125.584 75.4596 125.374 75.2317 125.14 75.1886C124.906 75.1331 124.74 75.2717 124.685 75.398C124.623 75.5212 124.651 75.6105 124.629 75.6167C124.617 75.629 124.534 75.5428 124.571 75.3611C124.589 75.2717 124.641 75.1701 124.746 75.0839C124.854 74.9976 125.008 74.9545 125.174 74.973C125.516 74.9976 125.821 75.3149 125.975 75.6629C126.148 76.014 126.249 76.4452 126.234 76.898C126.2 77.7881 125.738 78.6197 125.097 78.8014C124.786 78.8815 124.527 78.786 124.392 78.6782C124.256 78.5673 124.232 78.4688 124.247 78.4626L124.25 78.4657Z" fill="#FF9A6C"/>
<path d="M124.118 73.5564L122.92 74.6406C118.398 69.6848 109.737 57.4572 110.218 58.1841C110.218 58.1841 113.621 57.0476 117.176 57.9038C120.73 58.7601 127.426 61.0208 127.032 65.2558C126.64 69.4877 124.118 73.5564 124.118 73.5564Z" fill="#263238"/>
<path d="M130.586 73.0204C130.586 73.0204 130.577 72.9311 130.537 72.7617C130.496 72.5923 130.416 72.349 130.284 72.0471C130.016 71.4465 129.483 70.6211 128.584 69.8511C127.697 69.0626 126.443 68.3819 124.999 67.8152C123.557 67.2362 121.922 66.7495 120.339 65.9395C118.743 65.1541 117.339 64.187 116.15 63.2044C114.967 62.2158 114.003 61.2086 113.261 60.3092C112.515 59.4099 111.986 58.6276 111.628 58.0793C111.465 57.8206 111.333 57.6081 111.228 57.4418C111.136 57.297 111.083 57.2231 111.077 57.2262C111.071 57.2292 111.108 57.3124 111.188 57.4633C111.271 57.6142 111.385 57.8422 111.554 58.1255C111.89 58.6892 112.405 59.49 113.138 60.4078C113.871 61.3256 114.832 62.3544 116.017 63.3615C117.209 64.3594 118.626 65.345 120.237 66.1366C121.842 66.959 123.489 67.4394 124.922 68.0062C126.36 68.5575 127.598 69.2104 128.482 69.9681C129.378 70.7104 129.921 71.502 130.207 72.081C130.493 72.6662 130.567 73.0235 130.589 73.0173L130.586 73.0204Z" fill="#455A64"/>
<path d="M129.258 73.6273C129.258 73.6273 129.326 73.27 129.154 72.654C128.987 72.0411 128.522 71.1941 127.638 70.4672C126.764 69.7188 125.479 69.2044 124.059 68.7763C122.63 68.3574 121.087 67.843 119.59 67.0176C118.093 66.1983 116.769 65.2374 115.688 64.2271C114.601 63.223 113.738 62.2005 113.082 61.2919C112.417 60.3894 111.983 59.5887 111.672 59.0466C111.536 58.7848 111.428 58.5722 111.339 58.4028C111.262 58.2581 111.216 58.1811 111.21 58.1842C111.203 58.1873 111.234 58.2704 111.299 58.4213C111.376 58.5969 111.474 58.8156 111.595 59.0835C111.884 59.641 112.3 60.4603 112.953 61.3812C113.6 62.3083 114.456 63.3524 115.546 64.375C116.63 65.4037 117.97 66.3831 119.482 67.2116C120.995 68.0463 122.575 68.5669 124.001 68.9734C125.421 69.3892 126.68 69.8758 127.54 70.5873C128.411 71.2803 128.886 72.0873 129.07 72.6756C129.268 73.2669 129.231 73.6273 129.261 73.6242L129.258 73.6273Z" fill="#455A64"/>
<path d="M123.468 81.007C123.468 80.9762 123.847 80.9547 124.509 80.8284C125.168 80.6929 126.114 80.3572 127.068 79.618C128.032 78.8911 128.923 77.7176 129.597 76.27C130.269 74.8193 130.727 73.0914 130.897 71.2527C130.977 70.3318 130.968 69.4293 130.866 68.5669C130.752 67.7045 130.552 66.8883 130.296 66.1306C129.767 64.6184 129.009 63.3679 128.254 62.4223C126.736 60.5158 125.418 59.7027 125.473 59.6442C125.479 59.6349 125.559 59.6842 125.707 59.7889C125.852 59.8936 126.08 60.0384 126.345 60.2571C126.884 60.679 127.632 61.3474 128.414 62.296C129.2 63.2416 129.991 64.5044 130.549 66.0444C130.817 66.8175 131.026 67.6522 131.146 68.5361C131.254 69.4201 131.266 70.3472 131.186 71.2866C131.014 73.1592 130.537 74.9148 129.837 76.3932C129.138 77.8685 128.202 79.0636 127.192 79.7904C126.191 80.5327 125.208 80.8438 124.527 80.9485C124.189 81.0194 123.918 81.0009 123.739 81.0194C123.557 81.0286 123.465 81.0255 123.465 81.0163L123.468 81.007Z" fill="#455A64"/>
<path d="M109.694 91.3251L122.177 89.9761L124.463 92.0551L115.552 97.2942L111.619 99.33L107.738 98.1504L106.506 95.8373L109.694 91.3251Z" fill="#FFBF9D"/>
<path d="M92.8712 106.522C92.8712 106.522 96.7828 99.0127 97.753 97.371C99.4039 94.5744 102.484 92.9913 102.484 92.9913L109.694 91.3219C109.694 91.3219 108.946 94.9348 113.433 95.1842C119.141 95.5015 122.686 90.0283 122.686 90.0283C122.686 90.0283 129.197 90.6998 130.995 91.4544C132.794 92.209 137.879 94.3372 138.628 101.101L140.371 112.143L126.613 113.19L126.804 127.891L133.573 139.472H100.368C100.888 139.61 102.718 131.876 101.517 125.766L99.2499 120.265C98.3444 118.062 97.7808 115.728 97.6452 113.35C97.5559 111.785 97.599 110.6 97.599 110.6C97.599 110.6 94.0694 109.386 92.8682 106.519L92.8712 106.522Z" fill="#86B282"/>
<path d="M103.71 133.062L126.776 126.138L126.613 113.193L138.36 112.297C138.36 112.297 137.423 119.005 137.285 122.442C137.088 127.389 134.707 134.303 133.118 135.77C131.525 137.239 103.1 138.831 103.1 138.831L103.713 133.056L103.71 133.062Z" fill="#FFBF9D"/>
<path d="M90.6291 137.134C90.8201 137.448 91.1804 137.636 91.5408 137.575C91.6116 137.562 91.6886 137.541 91.7656 137.51C92.2708 137.303 92.1414 136.25 92.1414 136.25L94.5962 135.653C94.5962 135.653 97.9903 137.488 99.247 138.779C100.504 140.072 103.353 138.726 103.353 138.726L103.959 133.349L99.0622 129.563C99.0622 129.563 99.3609 129.788 98.9882 129.04C98.6125 128.291 97.1987 128.695 97.1987 128.695C96.9462 128.328 95.9945 128.264 95.9945 128.264L92.0151 129.037C91.1958 129.197 90.4905 129.717 90.1024 130.457L88.6117 133.275C88.6117 133.275 87.8663 135.28 88.045 135.717C88.316 136.379 89.0213 136.173 89.0213 136.173C89.0213 136.173 89.317 137.43 89.6558 137.448C89.9946 137.467 90.6322 137.134 90.6322 137.134H90.6291Z" fill="#FFBF9D"/>
<path d="M98.8774 132.665C98.8774 132.708 98.3384 132.699 97.4852 132.803C96.632 132.911 95.4616 133.154 94.2574 133.669C93.6568 133.924 93.1054 134.22 92.625 134.522C92.1599 134.833 91.6732 135.095 91.5439 135.461C91.4792 135.64 91.5285 135.812 91.624 135.936C91.7194 136.059 91.8396 136.136 91.9474 136.17C92.166 136.241 92.2954 136.17 92.3046 136.194C92.3139 136.201 92.1876 136.314 91.9227 136.265C91.7934 136.241 91.6424 136.17 91.5131 136.028C91.3837 135.896 91.2944 135.646 91.3683 135.406C91.4361 135.166 91.624 134.969 91.8242 134.802C92.0305 134.642 92.2492 134.479 92.4925 134.322C92.9761 134.001 93.5366 133.693 94.1526 133.432C95.3846 132.902 96.5951 132.683 97.4636 132.622C98.3384 132.563 98.8773 132.637 98.8743 132.665H98.8774Z" fill="#FF9A6C"/>
<path d="M99.3578 135.203C99.3578 135.28 97.7192 135.338 95.7234 135.609C93.7244 135.874 92.129 136.253 92.1105 136.179C92.1013 136.145 92.4924 136.01 93.1362 135.843C93.7799 135.677 94.6823 135.489 95.6895 135.354C96.6966 135.218 97.6176 135.159 98.2828 135.15C98.9481 135.138 99.3608 135.169 99.3608 135.203H99.3578Z" fill="#FF9A6C"/>
<path d="M90.6443 137.029C90.6443 137.029 90.6012 136.882 90.5611 136.604C90.5242 136.33 90.4749 135.93 90.4688 135.428C90.4688 135.178 90.4718 134.901 90.518 134.605C90.5581 134.307 90.6751 133.986 90.8445 133.7C91.1648 133.124 91.6238 132.517 92.2305 132.043C92.8342 131.572 93.444 131.168 94.0754 130.925C94.7007 130.681 95.2951 130.586 95.7879 130.527C96.2838 130.472 96.6842 130.45 96.9614 130.441C97.2386 130.432 97.3926 130.435 97.3926 130.45C97.3987 130.491 96.7858 130.558 95.8125 130.706C95.329 130.789 94.753 130.9 94.1617 131.143C93.5734 131.384 92.9759 131.787 92.3907 132.243C91.8055 132.705 91.3773 133.259 91.0478 133.82C90.6997 134.356 90.672 134.944 90.6505 135.431C90.6289 136.41 90.7028 137.026 90.6474 137.029H90.6443Z" fill="#FF9A6C"/>
<path d="M95.8774 129.298C95.8805 129.335 95.2799 129.4 94.3312 129.585C93.4195 129.797 91.9442 129.979 91.2019 131.319C90.3796 132.548 89.6897 133.7 89.4186 134.624C89.1291 135.541 89.2092 136.157 89.1537 136.154C89.1414 136.154 89.1045 136.007 89.0983 135.729C89.0891 135.455 89.1168 135.049 89.2431 134.571C89.4771 133.601 90.1609 132.406 90.9863 131.171C91.1989 130.86 91.4299 130.564 91.7071 130.321C91.9812 130.074 92.3108 129.917 92.6157 129.803C93.2348 129.575 93.8138 129.477 94.2973 129.4C95.2675 129.258 95.8743 129.261 95.8743 129.292L95.8774 129.298Z" fill="#FF9A6C"/>
<path d="M98.3044 137.993C98.3044 137.993 98.212 137.944 98.0518 137.83C97.8701 137.704 97.6329 137.543 97.3373 137.343C96.7089 136.93 95.7757 136.345 94.5591 135.729L94.6176 135.735C93.8846 135.92 93.0591 136.127 92.1659 136.351L92.2429 136.241C92.2645 136.444 92.2676 136.641 92.2429 136.85C92.2183 137.057 92.169 137.279 92.0089 137.469C91.9257 137.562 91.7963 137.623 91.6916 137.645C91.5838 137.682 91.4637 137.704 91.3436 137.691C91.1033 137.676 90.8723 137.568 90.6999 137.396C90.6567 137.352 90.6167 137.306 90.5797 137.257L90.5551 137.22L90.5428 137.202L90.5366 137.192C90.5027 137.18 90.8231 137.269 90.6875 137.232H90.6814L90.6044 137.275C90.5027 137.325 90.398 137.371 90.2933 137.414C90.1855 137.457 90.0777 137.494 89.9606 137.525C89.9021 137.54 89.8436 137.553 89.7789 137.559C89.7173 137.565 89.6465 137.574 89.5449 137.531C89.397 137.442 89.3385 137.328 89.2769 137.22C89.2184 137.112 89.1691 137.001 89.126 136.887C89.0397 136.663 88.972 136.435 88.9104 136.197L89.0644 136.287C88.7471 136.37 88.359 136.321 88.1126 136.043C88.0018 135.914 87.9063 135.751 87.9032 135.557C87.8971 135.381 87.9248 135.227 87.9525 135.07C88.0788 134.448 88.279 133.844 88.5007 133.228V133.222L88.5069 133.213C88.7594 132.732 89.0274 132.224 89.3015 131.71C89.4709 131.39 89.6372 131.072 89.8066 130.758C89.976 130.453 90.1208 130.111 90.3672 129.828C90.6044 129.548 90.9001 129.32 91.2204 129.16C91.5407 128.99 91.9072 128.926 92.2275 128.867C93.5458 128.614 94.8024 128.374 95.979 128.149H96.0098C96.2469 128.168 96.4656 128.208 96.6874 128.27C96.903 128.337 97.1309 128.414 97.2941 128.627L97.1525 128.593C97.5652 128.387 98.0549 128.347 98.4461 128.565C98.8403 128.781 99.0405 129.166 99.1637 129.532L99.1298 129.483C100.534 130.564 101.683 131.445 102.502 132.076C102.881 132.375 103.183 132.612 103.414 132.794C103.62 132.96 103.725 133.053 103.722 133.059C103.716 133.065 103.599 132.991 103.383 132.837C103.146 132.668 102.835 132.443 102.444 132.16C101.612 131.547 100.448 130.687 99.0189 129.634L98.9974 129.615L98.9851 129.582C98.8742 129.258 98.677 128.91 98.3536 128.744C98.0395 128.565 97.6083 128.605 97.2633 128.781L97.1771 128.824L97.1186 128.747C97.0231 128.621 96.8229 128.534 96.6258 128.479C96.4256 128.424 96.21 128.387 95.9944 128.368H96.0252C94.8517 128.599 93.5951 128.845 92.2768 129.104C91.9411 129.169 91.6269 129.224 91.3343 129.378C91.0417 129.523 90.7769 129.729 90.5613 129.985C90.3426 130.231 90.204 130.552 90.0315 130.869C89.8652 131.183 89.6958 131.504 89.5295 131.821C89.2584 132.335 88.9874 132.843 88.7348 133.324L88.741 133.308C88.5254 133.909 88.3221 134.513 88.202 135.107C88.1743 135.255 88.1496 135.406 88.1527 135.538C88.1496 135.652 88.2143 135.772 88.2975 135.871C88.4576 136.065 88.7533 136.105 88.9935 136.047L89.1167 136.016L89.1475 136.136C89.203 136.361 89.2677 136.586 89.3477 136.798C89.4247 136.998 89.5325 137.242 89.6496 137.315C89.6557 137.315 89.6989 137.328 89.7512 137.319C89.8005 137.315 89.8498 137.303 89.9021 137.291C90.0038 137.266 90.1054 137.229 90.2071 137.192C90.3087 137.152 90.4073 137.109 90.5027 137.063L90.5736 137.029H90.5797C90.4442 136.989 90.7645 137.075 90.7306 137.069L90.7368 137.078L90.7461 137.094L90.7645 137.125C90.7923 137.165 90.8231 137.202 90.8569 137.235C90.9924 137.371 91.1742 137.457 91.3559 137.469C91.4483 137.479 91.5376 137.463 91.6269 137.433C91.7255 137.411 91.7902 137.377 91.8456 137.319C92.0643 137.054 92.0643 136.61 92.0366 136.259L92.0304 136.167L92.1136 136.148C93.0099 135.936 93.8384 135.742 94.5714 135.566L94.6022 135.56L94.6299 135.575C95.8496 136.219 96.7705 136.826 97.3865 137.263C97.6945 137.485 97.9255 137.664 98.0765 137.79C98.2274 137.916 98.3044 137.984 98.3013 137.99L98.3044 137.993Z" fill="#FF9A6C"/>
<path d="M61.7264 138.628L53.0069 115.731C52.6773 114.869 53.3149 113.945 54.2358 113.945H82.233C82.7443 113.945 83.2094 114.241 83.425 114.703L91.8087 136.543L109.396 136.842C110.122 136.842 110.711 137.43 110.711 138.157C110.711 138.884 110.122 139.472 109.396 139.472H62.9553C62.4101 139.472 61.9204 139.133 61.7264 138.625V138.628Z" fill="#455A64"/>
<path d="M73.5752 126.712C73.5752 127.725 72.7528 128.547 71.7395 128.547C70.7262 128.547 69.9038 127.725 69.9038 126.712C69.9038 125.698 70.7262 124.876 71.7395 124.876C72.7528 124.876 73.5752 125.698 73.5752 126.712Z" fill="white"/>
<path d="M101.163 98.2275C101.203 98.2491 100.83 98.9483 100.303 100.116C99.7767 101.28 99.1268 102.925 98.6001 104.8C98.0796 106.679 97.7839 108.422 97.6299 109.691C97.4759 110.96 97.4328 111.752 97.3866 111.752C97.3681 111.752 97.3589 111.552 97.3589 111.194C97.3589 110.834 97.3804 110.313 97.4328 109.673C97.5375 108.392 97.8024 106.624 98.3291 104.729C98.8588 102.835 99.5457 101.187 100.122 100.035C100.408 99.4595 100.658 99.0037 100.845 98.6957C101.03 98.3877 101.141 98.2214 101.16 98.2306L101.163 98.2275Z" fill="#263238"/>
<path d="M140.371 112.146C140.371 112.146 140.273 112.171 140.088 112.189C139.875 112.211 139.601 112.238 139.262 112.269C138.511 112.331 137.47 112.42 136.179 112.528C133.521 112.728 129.847 113.005 125.633 113.323L125.498 113.332L125.489 113.196C125.399 111.795 125.307 110.317 125.211 108.798C125.06 106.149 124.934 103.627 124.894 101.329C124.774 99.016 125.341 96.9062 126.246 95.4062C127.143 93.8816 128.335 92.9977 129.203 92.5665C129.647 92.357 130.001 92.2184 130.25 92.1599C130.497 92.0891 130.629 92.0583 130.629 92.0675C130.641 92.1045 130.106 92.2123 129.252 92.662C128.412 93.1178 127.272 94.0048 126.416 95.5048C125.55 96.9893 125.017 99.0376 125.15 101.323C125.205 103.614 125.341 106.137 125.489 108.783C125.581 110.301 125.673 111.78 125.76 113.178L125.615 113.052C129.828 112.774 133.506 112.531 136.167 112.352C137.461 112.278 138.502 112.217 139.256 112.174C139.598 112.158 139.872 112.146 140.085 112.137C140.273 112.131 140.371 112.134 140.374 112.14L140.371 112.146Z" fill="#263238"/>
<path d="M114.505 121.139C114.496 121.158 114.336 121.096 114.043 120.97C113.895 120.908 113.72 120.828 113.529 120.711C113.335 120.597 113.104 120.48 112.876 120.311C112.402 120 111.881 119.562 111.357 119.023C110.846 118.472 110.338 117.816 109.904 117.064C109.479 116.307 109.174 115.534 108.964 114.81C108.77 114.083 108.659 113.412 108.635 112.845C108.604 112.561 108.622 112.306 108.625 112.081C108.625 111.856 108.644 111.662 108.669 111.505C108.709 111.191 108.739 111.021 108.758 111.021C108.813 111.028 108.724 111.721 108.832 112.826C108.881 113.381 109.01 114.031 109.214 114.736C109.432 115.435 109.737 116.184 110.15 116.923C110.572 117.656 111.062 118.3 111.551 118.845C112.054 119.381 112.546 119.821 112.996 120.148C113.892 120.807 114.533 121.084 114.511 121.136L114.505 121.139Z" fill="#263238"/>
</svg>
