<svg width="172" height="33" viewBox="0 0 172 33" fill="none" xmlns="http://www.w3.org/2000/svg">
<path d="M9.768 24.48C8.08267 24.48 6.56267 24.1867 5.208 23.6C3.864 23.0133 2.75467 22.176 1.88 21.088C1.016 19.9893 0.466667 18.688 0.232 17.184L4.232 16.576C4.57333 17.9413 5.272 18.9973 6.328 19.744C7.39467 20.4907 8.62133 20.864 10.008 20.864C10.8293 20.864 11.6027 20.736 12.328 20.48C13.0533 20.224 13.64 19.8507 14.088 19.36C14.5467 18.8693 14.776 18.2667 14.776 17.552C14.776 17.232 14.7227 16.9387 14.616 16.672C14.5093 16.3947 14.3493 16.1493 14.136 15.936C13.9333 15.7227 13.6667 15.5307 13.336 15.36C13.016 15.1787 12.6427 15.024 12.216 14.896L6.264 13.136C5.752 12.9867 5.19733 12.7893 4.6 12.544C4.01333 12.288 3.45333 11.9413 2.92 11.504C2.39733 11.056 1.96533 10.4907 1.624 9.808C1.29333 9.11467 1.128 8.26133 1.128 7.248C1.128 5.76533 1.50133 4.52267 2.248 3.52C3.00533 2.50666 4.01867 1.74933 5.288 1.248C6.568 0.746665 7.98667 0.501332 9.544 0.511999C11.1227 0.522665 12.5307 0.794665 13.768 1.328C15.0053 1.85067 16.04 2.61333 16.872 3.616C17.704 4.61867 18.2907 5.82933 18.632 7.248L14.488 7.968C14.3173 7.15733 13.9867 6.46933 13.496 5.904C13.016 5.328 12.424 4.89067 11.72 4.592C11.0267 4.29333 10.2853 4.13333 9.496 4.112C8.728 4.10133 8.01333 4.21867 7.352 4.464C6.70133 4.69867 6.17333 5.04 5.768 5.488C5.37333 5.936 5.176 6.45867 5.176 7.056C5.176 7.62133 5.34667 8.08533 5.688 8.448C6.02933 8.8 6.45067 9.08267 6.952 9.296C7.464 9.49867 7.98133 9.66933 8.504 9.808L12.632 10.96C13.1973 11.1093 13.832 11.312 14.536 11.568C15.24 11.824 15.9173 12.1813 16.568 12.64C17.2187 13.0987 17.752 13.7013 18.168 14.448C18.5947 15.1947 18.808 16.144 18.808 17.296C18.808 18.4907 18.5573 19.5413 18.056 20.448C17.5653 21.344 16.8987 22.0907 16.056 22.688C15.2133 23.2853 14.248 23.7333 13.16 24.032C12.0827 24.3307 10.952 24.48 9.768 24.48ZM80.9588 24V0.959999H84.8148V10.656H95.7268V0.959999H99.5668V24H95.7268V14.272H84.8148V24H80.9588Z" fill="#86B282"/>
<path d="M30.1273 24.48C28.3779 24.48 26.8419 24.1013 25.5193 23.344C24.1966 22.5867 23.1619 21.536 22.4153 20.192C21.6793 18.848 21.3113 17.3013 21.3113 15.552C21.3113 13.664 21.6739 12.0267 22.3993 10.64C23.1246 9.24267 24.1326 8.16 25.4233 7.392C26.7139 6.624 28.2073 6.24 29.9033 6.24C31.6953 6.24 33.2153 6.66133 34.4633 7.504C35.7219 8.336 36.6553 9.51467 37.2633 11.04C37.8713 12.5653 38.1006 14.3627 37.9513 16.432H34.1273V15.024C34.1166 13.1467 33.7859 11.776 33.1353 10.912C32.4846 10.048 31.4606 9.616 30.0633 9.616C28.4846 9.616 27.3113 10.1067 26.5433 11.088C25.7753 12.0587 25.3913 13.4827 25.3913 15.36C25.3913 17.1093 25.7753 18.464 26.5433 19.424C27.3113 20.384 28.4313 20.864 29.9033 20.864C30.8526 20.864 31.6686 20.656 32.3513 20.24C33.0446 19.8133 33.5779 19.2 33.9513 18.4L37.7593 19.552C37.0979 21.1093 36.0739 22.32 34.6873 23.184C33.3113 24.048 31.7913 24.48 30.1273 24.48ZM24.1753 16.432V13.52H36.0633V16.432H24.1753ZM41.5213 24V6.72H44.9293V10.928L44.5133 10.384C44.7266 9.808 45.0093 9.28533 45.3613 8.816C45.7239 8.336 46.1559 7.94133 46.6573 7.632C47.0839 7.344 47.5533 7.12 48.0653 6.96C48.5879 6.78933 49.1213 6.688 49.6653 6.656C50.2093 6.61333 50.7373 6.63467 51.2493 6.72V10.32C50.7373 10.1707 50.1453 10.1227 49.4733 10.176C48.8119 10.2293 48.2146 10.416 47.6813 10.736C47.1479 11.024 46.7106 11.392 46.3693 11.84C46.0386 12.288 45.7933 12.8 45.6333 13.376C45.4733 13.9413 45.3933 14.5547 45.3933 15.216V24H41.5213ZM58.9745 24L52.7025 6.72H56.5585L60.9105 19.248L65.2465 6.72H69.1185L62.8465 24H58.9745ZM72.31 4.096V0.559999H76.166V4.096H72.31ZM72.31 24V6.72H76.166V24H72.31ZM111.685 24.48C109.957 24.48 108.447 24.0907 107.157 23.312C105.866 22.5333 104.863 21.4613 104.149 20.096C103.445 18.72 103.093 17.1413 103.093 15.36C103.093 13.5467 103.455 11.9573 104.181 10.592C104.906 9.22667 105.914 8.16 107.205 7.392C108.495 6.624 109.989 6.24 111.685 6.24C113.423 6.24 114.938 6.62933 116.229 7.408C117.519 8.18667 118.522 9.264 119.237 10.64C119.951 12.0053 120.309 13.5787 120.309 15.36C120.309 17.152 119.946 18.736 119.221 20.112C118.506 21.4773 117.503 22.5493 116.213 23.328C114.922 24.096 113.413 24.48 111.685 24.48ZM111.685 20.864C113.221 20.864 114.362 20.352 115.109 19.328C115.855 18.304 116.229 16.9813 116.229 15.36C116.229 13.6853 115.85 12.352 115.093 11.36C114.335 10.3573 113.199 9.856 111.685 9.856C110.65 9.856 109.797 10.0907 109.125 10.56C108.463 11.0187 107.973 11.664 107.653 12.496C107.333 13.3173 107.173 14.272 107.173 15.36C107.173 17.0347 107.551 18.3733 108.309 19.376C109.077 20.368 110.202 20.864 111.685 20.864ZM131.098 32.16C130.138 32.16 129.215 32.0107 128.33 31.712C127.455 31.4133 126.666 30.9813 125.962 30.416C125.258 29.8613 124.682 29.1893 124.234 28.4L127.786 26.64C128.116 27.2693 128.58 27.7333 129.178 28.032C129.786 28.3413 130.431 28.496 131.114 28.496C131.914 28.496 132.628 28.352 133.258 28.064C133.887 27.7867 134.372 27.3707 134.714 26.816C135.066 26.272 135.231 25.5893 135.21 24.768V19.856H135.69V6.72H139.066V24.832C139.066 25.2693 139.044 25.6853 139.002 26.08C138.97 26.4853 138.911 26.88 138.826 27.264C138.57 28.384 138.079 29.3013 137.354 30.016C136.628 30.7413 135.727 31.28 134.65 31.632C133.583 31.984 132.399 32.16 131.098 32.16ZM130.762 24.48C129.172 24.48 127.786 24.08 126.602 23.28C125.418 22.48 124.5 21.392 123.85 20.016C123.199 18.64 122.874 17.088 122.874 15.36C122.874 13.6107 123.199 12.0533 123.85 10.688C124.511 9.312 125.444 8.22933 126.65 7.44C127.855 6.64 129.274 6.24 130.906 6.24C132.548 6.24 133.924 6.64 135.034 7.44C136.154 8.22933 137.002 9.312 137.578 10.688C138.154 12.064 138.442 13.6213 138.442 15.36C138.442 17.0773 138.154 18.6293 137.578 20.016C137.002 21.392 136.143 22.48 135.002 23.28C133.86 24.08 132.447 24.48 130.762 24.48ZM131.354 21.024C132.388 21.024 133.22 20.7893 133.85 20.32C134.49 19.84 134.954 19.1733 135.242 18.32C135.54 17.4667 135.69 16.48 135.69 15.36C135.69 14.2293 135.54 13.2427 135.242 12.4C134.954 11.5467 134.5 10.8853 133.882 10.416C133.263 9.936 132.463 9.696 131.482 9.696C130.447 9.696 129.594 9.952 128.922 10.464C128.25 10.9653 127.754 11.648 127.434 12.512C127.114 13.3653 126.954 14.3147 126.954 15.36C126.954 16.416 127.108 17.376 127.418 18.24C127.738 19.0933 128.223 19.7707 128.874 20.272C129.524 20.7733 130.351 21.024 131.354 21.024ZM148.385 24.48C147.137 24.48 146.081 24.2453 145.217 23.776C144.353 23.296 143.697 22.6613 143.249 21.872C142.811 21.0827 142.593 20.2133 142.593 19.264C142.593 18.432 142.731 17.6853 143.009 17.024C143.286 16.352 143.713 15.776 144.289 15.296C144.865 14.8053 145.611 14.4053 146.529 14.096C147.222 13.872 148.033 13.6693 148.961 13.488C149.899 13.3067 150.913 13.1413 152.001 12.992C153.099 12.832 154.246 12.6613 155.441 12.48L154.065 13.264C154.075 12.0693 153.809 11.1893 153.265 10.624C152.721 10.0587 151.803 9.776 150.513 9.776C149.734 9.776 148.982 9.95733 148.257 10.32C147.531 10.6827 147.025 11.3067 146.737 12.192L143.217 11.088C143.643 9.62667 144.454 8.45333 145.649 7.568C146.854 6.68267 148.475 6.24 150.513 6.24C152.049 6.24 153.398 6.49067 154.561 6.992C155.734 7.49333 156.603 8.31467 157.169 9.456C157.478 10.064 157.665 10.688 157.729 11.328C157.793 11.9573 157.825 12.6453 157.825 13.392V24H154.449V20.256L155.009 20.864C154.23 22.112 153.318 23.0293 152.273 23.616C151.238 24.192 149.942 24.48 148.385 24.48ZM149.153 21.408C150.027 21.408 150.774 21.2533 151.393 20.944C152.011 20.6347 152.502 20.256 152.865 19.808C153.238 19.36 153.489 18.9387 153.617 18.544C153.819 18.0533 153.931 17.4933 153.953 16.864C153.985 16.224 154.001 15.7067 154.001 15.312L155.185 15.664C154.022 15.8453 153.025 16.0053 152.193 16.144C151.361 16.2827 150.646 16.416 150.049 16.544C149.451 16.6613 148.923 16.7947 148.465 16.944C148.017 17.104 147.638 17.2907 147.329 17.504C147.019 17.7173 146.779 17.9627 146.609 18.24C146.449 18.5173 146.369 18.8427 146.369 19.216C146.369 19.6427 146.475 20.0213 146.689 20.352C146.902 20.672 147.211 20.928 147.617 21.12C148.033 21.312 148.545 21.408 149.153 21.408ZM161.99 24V6.72H165.398V10.928L164.982 10.384C165.195 9.808 165.478 9.28533 165.83 8.816C166.193 8.336 166.625 7.94133 167.126 7.632C167.553 7.344 168.022 7.12 168.534 6.96C169.057 6.78933 169.59 6.688 170.134 6.656C170.678 6.61333 171.206 6.63467 171.718 6.72V10.32C171.206 10.1707 170.614 10.1227 169.942 10.176C169.281 10.2293 168.683 10.416 168.15 10.736C167.617 11.024 167.179 11.392 166.838 11.84C166.507 12.288 166.262 12.8 166.102 13.376C165.942 13.9413 165.862 14.5547 165.862 15.216V24H161.99Z" fill="#161616"/>
</svg>
