<svg width="50" height="50" viewBox="0 0 50 50" fill="none" xmlns="http://www.w3.org/2000/svg">
<ellipse cx="25" cy="25.1908" rx="25" ry="24.8092" fill="#BCF5CC" fill-opacity="0.5"/>
<path d="M15.5261 31.6794C13.258 31.6794 11.2123 31.2917 9.38919 30.5163C7.58041 29.7409 6.08744 28.6342 4.9103 27.1961C3.74751 25.744 3.0082 24.024 2.69238 22.0361L8.07567 21.2325C8.53505 23.0371 9.47533 24.4328 10.8965 25.4197C12.3321 26.4066 13.9829 26.9001 15.8491 26.9001C16.9545 26.9001 17.9953 26.7309 18.9715 26.3925C19.9476 26.0542 20.7372 25.5607 21.3401 24.9122C21.9574 24.2637 22.266 23.4671 22.266 22.5225C22.266 22.0996 22.1942 21.7119 22.0507 21.3594C21.9071 20.9929 21.6918 20.6686 21.4047 20.3866C21.1319 20.1047 20.7731 19.8509 20.328 19.6253C19.8974 19.3856 19.3949 19.1812 18.8207 19.012L10.8104 16.6858C10.1213 16.4884 9.37484 16.2276 8.57094 15.9034C7.78139 15.565 7.02773 15.1068 6.30995 14.5288C5.60654 13.9366 5.02514 13.1894 4.56577 12.2871C4.12075 11.3707 3.89824 10.2429 3.89824 8.90354C3.89824 6.94387 4.40068 5.30141 5.40556 3.97617C6.4248 2.63683 7.78856 1.63585 9.49686 0.973225C11.2195 0.310603 13.1288 -0.0136584 15.2247 0.000440613C17.3493 0.0145379 19.2442 0.374045 20.9094 1.07896C22.5747 1.76978 23.9671 2.77781 25.0869 4.10305C26.2066 5.4283 26.9961 7.02846 27.4555 8.90354L21.8784 9.85517C21.6487 8.7837 21.2037 7.87436 20.5434 7.12715C19.8974 6.36584 19.1007 5.7878 18.1532 5.39305C17.2201 4.9983 16.2224 4.78682 15.1601 4.75863C14.1265 4.74453 13.1647 4.89961 12.2746 5.22387C11.399 5.53404 10.6884 5.98518 10.1429 6.57731C9.61171 7.16944 9.34613 7.86026 9.34613 8.64977C9.34613 9.39698 9.57582 10.0103 10.0352 10.4896C10.4946 10.9548 11.0616 11.3284 11.7363 11.6104C12.4254 11.8783 13.1216 12.1039 13.825 12.2871L19.3806 13.8098C20.1414 14.0071 20.9956 14.275 21.943 14.6134C22.8905 14.9517 23.8021 15.424 24.6777 16.0302C25.5534 16.6365 26.2712 17.433 26.8311 18.4199C27.4053 19.4068 27.6924 20.6615 27.6924 22.1842C27.6924 23.7632 27.355 25.1519 26.6803 26.3502C26.02 27.5345 25.1228 28.5214 23.9887 29.3109C22.8546 30.1004 21.5554 30.6925 20.0912 31.0873C18.6413 31.482 17.1196 31.6794 15.5261 31.6794Z" fill="#86B282"/>
<path d="M22.3078 50V19.4656L27.3078 20.8015L27.4883 31.6524H42.1487V18.3206H47.3078V50H42.1487V36.6243H27.4883V50H22.3078Z" fill="#86B282"/>
</svg>
