<svg width="20" height="18" viewBox="0 0 20 18" fill="none" xmlns="http://www.w3.org/2000/svg">
<path d="M8 8.5C6.9 8.5 5.95833 8.10833 5.175 7.325C4.39167 6.54167 4 5.6 4 4.5C4 3.4 4.39167 2.45833 5.175 1.675C5.95833 0.891667 6.9 0.5 8 0.5C9.1 0.5 10.0417 0.891667 10.825 1.675C11.6083 2.45833 12 3.4 12 4.5C12 5.6 11.6083 6.54167 10.825 7.325C10.0417 8.10833 9.1 8.5 8 8.5ZM0 16.5V13.7C0 13.15 0.141667 12.6333 0.425 12.15C0.708333 11.6667 1.1 11.3 1.6 11.05C2.45 10.6167 3.40833 10.25 4.475 9.95C5.54167 9.65 6.71667 9.5 8 9.5H8.35C8.45 9.5 8.55 9.51667 8.65 9.55C8.51667 9.85 8.40417 10.1625 8.3125 10.4875C8.22083 10.8125 8.15 11.15 8.1 11.5H8C6.81667 11.5 5.75417 11.65 4.8125 11.95C3.87083 12.25 3.1 12.55 2.5 12.85C2.35 12.9333 2.22917 13.05 2.1375 13.2C2.04583 13.35 2 13.5167 2 13.7V14.5H8.3C8.4 14.85 8.53333 15.1958 8.7 15.5375C8.86667 15.8792 9.05 16.2 9.25 16.5H0ZM14 17.5L13.7 16C13.5 15.9167 13.3125 15.8292 13.1375 15.7375C12.9625 15.6458 12.7833 15.5333 12.6 15.4L11.15 15.85L10.15 14.15L11.3 13.15C11.2667 12.9167 11.25 12.7 11.25 12.5C11.25 12.3 11.2667 12.0833 11.3 11.85L10.15 10.85L11.15 9.15L12.6 9.6C12.7833 9.46667 12.9625 9.35417 13.1375 9.2625C13.3125 9.17083 13.5 9.08333 13.7 9L14 7.5H16L16.3 9C16.5 9.08333 16.6875 9.175 16.8625 9.275C17.0375 9.375 17.2167 9.5 17.4 9.65L18.85 9.15L19.85 10.9L18.7 11.9C18.7333 12.1 18.75 12.3083 18.75 12.525C18.75 12.7417 18.7333 12.95 18.7 13.15L19.85 14.15L18.85 15.85L17.4 15.4C17.2167 15.5333 17.0375 15.6458 16.8625 15.7375C16.6875 15.8292 16.5 15.9167 16.3 16L16 17.5H14ZM15 14.5C15.55 14.5 16.0208 14.3042 16.4125 13.9125C16.8042 13.5208 17 13.05 17 12.5C17 11.95 16.8042 11.4792 16.4125 11.0875C16.0208 10.6958 15.55 10.5 15 10.5C14.45 10.5 13.9792 10.6958 13.5875 11.0875C13.1958 11.4792 13 11.95 13 12.5C13 13.05 13.1958 13.5208 13.5875 13.9125C13.9792 14.3042 14.45 14.5 15 14.5ZM8 6.5C8.55 6.5 9.02083 6.30417 9.4125 5.9125C9.80417 5.52083 10 5.05 10 4.5C10 3.95 9.80417 3.47917 9.4125 3.0875C9.02083 2.69583 8.55 2.5 8 2.5C7.45 2.5 6.97917 2.69583 6.5875 3.0875C6.19583 3.47917 6 3.95 6 4.5C6 5.05 6.19583 5.52083 6.5875 5.9125C6.97917 6.30417 7.45 6.5 8 6.5Z" fill="#161616"/>
</svg>
