<svg width="194" height="225" viewBox="0 0 194 225" fill="none" xmlns="http://www.w3.org/2000/svg">
<path d="M107.501 200.057C153.059 193.151 184.393 150.619 177.487 105.061C170.58 59.5027 128.049 28.169 82.4908 35.0753C36.9324 41.9816 5.59868 84.5127 12.505 130.071C19.4113 175.629 61.9424 206.963 107.501 200.057Z" fill="#F5F5F5"/>
<path d="M167.278 101.451L168.24 136.984L155.564 117.465L125.864 117.18L132.493 128.941C139.431 139.229 143.637 147.878 152.749 157.739C157.299 162.669 161.528 169.535 163.595 170.973C168.537 174.442 175.962 177.222 182.413 171.638C191.418 163.845 190.349 148.852 187.51 133.539C184.349 116.539 182.698 100.144 182.698 100.144L167.278 101.451Z" fill="#FFBF9D"/>
<path d="M170.795 79.9482C170.795 79.9482 168.051 74.6616 165.877 75.1962C163.703 75.7308 160.768 77.5722 160.412 79.3899C160.055 81.2075 160.531 82.7638 161.35 82.6925C162.494 82.2911 163.577 81.7355 164.57 81.0412L167.35 84.9497L166.162 89.8918L163.275 91.3768L161.612 87.9316L162.289 84.0231C162.289 84.0231 160.317 82.3599 159.224 85.4843C158.131 88.6087 156.848 94.228 160.008 96.9485C162.904 99.2606 165.935 101.399 169.084 103.352L183.34 102.164L186.75 85.4249C186.75 85.4249 192.31 79.6275 192.678 77.2515C193.046 74.8755 193.355 67.7475 193.355 67.7475C193.145 67.5754 192.896 67.456 192.63 67.3991C192.365 67.3422 192.089 67.3495 191.827 67.4203C191.564 67.4912 191.322 67.6235 191.121 67.8064C190.92 67.9893 190.766 68.2176 190.67 68.4721C189.684 70.468 188.734 76.2654 188.734 76.2654L183.994 80.8155L185.859 60.3225C185.859 60.3225 183.008 58.4692 181.843 63.0786C180.679 67.6881 179.396 79.0691 178.814 79.0691C178.232 79.0691 176.509 79.0691 176.759 76.6931C177.008 74.3171 176.236 56.0457 176.236 56.0457C176.236 56.0457 172.126 56.9485 172.387 60.7977C172.648 64.6468 172.482 76.7287 172.387 77.6435C172.292 78.5583 170.795 79.9482 170.795 79.9482Z" fill="#FFBF9D"/>
<path d="M170.783 154.471C169.903 151.64 169.318 148.726 169.037 145.775C168.528 142.83 168.309 139.841 168.383 136.853C168.585 136.853 169.037 140.786 169.702 145.644C170.214 148.566 170.574 151.512 170.783 154.471Z" fill="#FF9A6C"/>
<path d="M174.799 97.4475C174.692 97.4475 174.49 96.8773 173.991 96.0338C173.334 94.942 172.464 93.9935 171.434 93.2445C170.403 92.4955 169.233 91.9614 167.991 91.6738C167.029 91.46 166.399 91.4481 166.399 91.3412C166.399 91.2343 167.017 91.1036 168.063 91.1987C169.426 91.3642 170.725 91.8742 171.837 92.6807C172.949 93.4871 173.837 94.5634 174.418 95.8081C174.703 96.3055 174.835 96.8756 174.799 97.4475Z" fill="#FF9A6C"/>
<path d="M64.4209 98.0889L83.5358 96.1406L116.028 97.5662L130.818 102.663L110.242 123.512L83.0369 120.126L70.848 113.2L64.4209 98.0889Z" fill="#FFBF9D"/>
<path d="M107.343 17.0911C110.693 14.9646 111.501 10.0344 109.719 6.50602C107.937 2.97766 104.052 0.839268 100.144 0.209628C97.2965 -0.226019 94.3864 0.019507 91.6522 0.92607C88.9181 1.83263 86.4378 3.37441 84.4147 5.42495C82.2526 7.64651 80.4943 10.5452 77.5719 11.5669C74.9939 12.4698 72.1427 11.6619 69.4341 12.0065C67.631 12.3354 65.9241 13.0628 64.4381 14.1357C62.9521 15.2086 61.7244 16.5998 60.8448 18.2078C59.1172 21.4406 58.0777 24.9961 57.7917 28.6503C57.3996 31.9886 57.1383 35.6477 54.8217 38.0712C52.5051 40.4947 49.0123 40.9461 46.2087 42.6331C43.6222 44.3181 41.7983 46.9489 41.1277 49.9622C40.4572 52.9754 40.9931 56.1314 42.6209 58.7543C43.7257 60.3699 45.3177 61.8549 45.4483 63.8152C45.5671 65.5972 44.4148 67.1891 43.8683 68.8998C43.586 70.0023 43.5433 71.1525 43.7433 72.2729C43.9432 73.3932 44.3811 74.4577 45.0274 75.3945C45.6737 76.3312 46.5133 77.1185 47.4897 77.7032C48.4661 78.2879 49.5565 78.6564 50.6874 78.7839C53.0634 78.9265 55.4394 78.0117 57.5897 79.0572C59.74 80.1026 60.429 82.6212 61.7477 84.4863C63.1079 86.3184 65.0549 87.6291 67.2642 88.1998C69.4735 88.7705 71.8117 88.5668 73.8891 87.6227C75.5998 86.7792 77.2155 85.3892 79.1163 85.5199C81.0171 85.6506 82.5139 87.2663 84.3791 87.6345C86.8264 88.0979 89.1311 86.304 90.5924 84.2844C92.0536 82.2648 93.0634 79.8769 94.9167 78.2256C97.3521 76.0634 100.773 75.5288 103.85 74.4596C107.265 73.2861 110.387 71.393 113.006 68.9083C115.625 66.4236 117.68 63.4053 119.032 60.0577C120.384 56.71 121 53.1111 120.841 49.5044C120.681 45.8977 119.749 42.3674 118.106 39.1523" fill="#263238"/>
<path d="M71.9171 60.8809C71.1669 60.0765 70.2336 59.4652 69.1965 59.0989H69.3985C69.2083 59.0451 69.0134 59.0093 68.8164 58.992C68.4645 58.891 68.0958 58.8621 67.7324 58.907C67.3691 58.9519 67.0185 59.0697 66.7018 59.2533C65.5217 59.6737 64.5424 60.5216 63.9575 61.6293C63.5017 62.6173 63.326 63.7115 63.4496 64.7925C63.5732 65.8735 63.9913 66.8998 64.6584 67.7594C65.1453 68.5311 65.853 69.1385 66.6896 69.5028C67.5261 69.8672 68.4529 69.9716 69.3495 69.8025C70.2461 69.6334 71.0712 69.1987 71.7177 68.5547C72.3641 67.9107 72.8019 67.0873 72.9744 66.1913C73.2564 65.2883 73.3073 64.329 73.1226 63.4013C72.9379 62.4736 72.5234 61.607 71.9171 60.8809Z" fill="#455A64"/>
<path d="M116.028 97.5662L119.592 32.2262C119.662 30.846 119.213 29.4894 118.333 28.4232C117.454 27.3571 116.208 26.6583 114.84 26.4644L85.6385 18.1484C76.2414 16.8772 69.648 28.3058 68.7926 37.7385C67.8304 48.2285 67.07 61.0708 68.0917 68.9354C70.0876 84.8308 83.013 87.2306 83.013 87.2306C83.013 87.2306 83.108 103.352 83.013 109.078L92.7308 130.117L116.028 97.5662Z" fill="#FFBF9D"/>
<path d="M74.6977 49.6778C74.6781 50.2057 74.8662 50.7202 75.2215 51.1111C75.5768 51.5019 76.0711 51.738 76.5985 51.7687C76.8545 51.7982 77.1138 51.7757 77.3609 51.7025C77.608 51.6293 77.8378 51.5069 78.0364 51.3427C78.235 51.1785 78.3984 50.9758 78.5167 50.7469C78.635 50.518 78.7059 50.2675 78.725 50.0105C78.7478 49.4826 78.5628 48.9667 78.2097 48.5736C77.8566 48.1805 77.3634 47.9414 76.8361 47.9077C76.5791 47.8816 76.3194 47.9068 76.0723 47.9819C75.8251 48.057 75.5954 48.1805 75.3964 48.3452C75.1974 48.5099 75.0331 48.7125 74.9132 48.9413C74.7932 49.1701 74.72 49.4205 74.6977 49.6778Z" fill="#263238"/>
<path d="M71.4065 43.5004C71.6441 43.7736 73.2123 42.6807 75.3863 42.752C77.5603 42.8232 79.1166 43.94 79.3661 43.6905C79.6156 43.441 79.2473 43.0965 78.5583 42.5619C77.6377 41.8832 76.5298 41.5056 75.3863 41.4808C74.2525 41.4495 73.138 41.7781 72.2025 42.4193C71.5253 42.9064 71.2758 43.3816 71.4065 43.5004Z" fill="#263238"/>
<path d="M94.2278 50.1888C94.1983 50.7138 94.3759 51.2293 94.7224 51.6247C95.069 52.0202 95.5568 52.2639 96.0811 52.3035C96.3371 52.333 96.5964 52.3105 96.8435 52.2373C97.0906 52.1641 97.3203 52.0417 97.519 51.8775C97.7176 51.7132 97.8809 51.5106 97.9993 51.2816C98.1176 51.0527 98.1885 50.8022 98.2076 50.5452C98.2303 50.0185 98.0449 49.504 97.6915 49.1128C97.3381 48.7216 96.845 48.4851 96.3186 48.4543C96.0673 48.4298 95.8135 48.4553 95.5721 48.5294C95.3306 48.6035 95.1062 48.7246 94.9118 48.8859C94.7174 49.0471 94.5568 49.2453 94.4394 49.469C94.322 49.6926 94.2501 49.9373 94.2278 50.1888Z" fill="#263238"/>
<path d="M92.7666 44.5101C93.0161 44.7833 94.5723 43.6903 96.7464 43.7616C98.9204 43.8329 100.489 44.9496 100.726 44.7001C100.964 44.4507 100.607 44.1061 99.9302 43.5834C99.0097 42.896 97.8952 42.5175 96.7464 42.5023C95.6166 42.4592 94.5033 42.7844 93.5744 43.429C92.8854 43.916 92.6478 44.3913 92.7666 44.5101Z" fill="#263238"/>
<path d="M84.4151 60.4174C83.2618 60.0268 82.0648 59.7794 80.8511 59.6808C80.3046 59.6096 79.7819 59.4789 79.6631 59.0987C79.6334 58.5228 79.7784 57.9514 80.0789 57.4593C80.6373 56.1406 81.2669 54.7388 81.8372 53.2775C84.2963 47.3375 86.0902 42.4192 85.8407 42.3242C85.5912 42.2291 83.4647 46.9811 80.9699 52.933C80.3759 54.4061 79.7819 55.808 79.2711 57.1385C78.9054 57.8005 78.7834 58.5699 78.9266 59.3125C78.999 59.5129 79.1173 59.6935 79.272 59.8399C79.4268 59.9864 79.6136 60.0946 79.8176 60.156C80.1226 60.2471 80.438 60.299 80.7561 60.3105C81.9664 60.4996 83.1958 60.5355 84.4151 60.4174Z" fill="#263238"/>
<path d="M83.1318 87.1712C90.2458 87.4248 97.287 85.6666 103.447 82.0984C103.447 82.0984 98.8847 93.8239 83.1556 91.8994L83.1318 87.1712Z" fill="#FF9A6C"/>
<path d="M84.5937 65.5972C85.1029 64.8938 85.7757 64.325 86.554 63.94C87.3322 63.555 88.1926 63.3653 89.0606 63.3875C89.6301 63.4084 90.1857 63.5689 90.6787 63.8547C91.1717 64.1406 91.587 64.5431 91.8881 65.0269C92.2205 65.5843 92.3754 66.2296 92.3321 66.8771C92.2888 67.5246 92.0494 68.1436 91.6457 68.6517C91.242 69.1599 90.6932 69.533 90.0723 69.7217C89.4514 69.9103 88.7877 69.9054 88.1696 69.7076C86.9698 69.2808 85.8901 68.5718 85.0214 67.6405C84.7424 67.4097 84.5156 67.1222 84.3561 66.797C84.2776 66.6206 84.2473 66.4265 84.2681 66.2345C84.289 66.0426 84.3603 65.8595 84.4749 65.7041" fill="#FF9A6C"/>
<path d="M90.7707 62.1044C90.4261 62.1044 90.3549 64.4804 88.2877 66.0486C86.2206 67.6168 83.7139 67.3435 83.6783 67.6643C83.6427 67.985 84.2248 68.1395 85.294 68.1989C86.6722 68.2605 88.0289 67.8405 89.1312 67.0109C90.1802 66.1973 90.8741 65.0097 91.0677 63.6963C91.1865 62.6865 90.937 62.0925 90.7707 62.1044Z" fill="#263238"/>
<path d="M92.0661 35.529C92.2562 36.123 94.4421 35.9091 96.9844 36.2893C99.5267 36.6695 101.57 37.4179 101.926 36.907C102.081 36.6576 101.736 36.0873 100.929 35.4933C99.8403 34.7472 98.5902 34.2708 97.2814 34.1034C95.9816 33.9045 94.6529 34.0227 93.4085 34.4479C92.5175 34.7924 91.9829 35.2439 92.0661 35.529Z" fill="#263238"/>
<path d="M72.3807 36.0397C72.749 36.5386 74.2577 36.0397 76.0635 36.0991C77.8693 36.1585 79.378 36.5268 79.7463 36.0159C79.9126 35.7664 79.6869 35.2675 79.0335 34.8279C78.159 34.2318 77.1217 33.9206 76.0635 33.9369C75.0035 33.9201 73.9648 34.2359 73.0935 34.8398C72.4401 35.2912 72.2144 35.7902 72.3807 36.0397Z" fill="#263238"/>
<path d="M58.1841 33.4262C58.8329 31.0241 60.2991 28.9234 62.3302 27.4862C63.554 26.8695 64.7438 26.1874 65.8942 25.4428C68.1633 23.6014 68.6979 20.4057 70.0998 17.8396C71.0215 16.1861 72.325 14.7767 73.9017 13.729C75.4784 12.6813 77.2827 12.0256 79.1642 11.8165C82.2886 11.4957 85.5081 12.4342 88.5494 11.6739C90.8066 11.1037 92.7668 9.64243 95.0478 9.21475C99.4909 8.37127 103.613 11.5907 106.833 14.7271C106.833 17.899 104.314 20.0255 101.879 22.0689C100.651 23.085 99.2179 23.8234 97.6779 24.2335C96.1379 24.6437 94.5274 24.7158 92.9569 24.4449C90.5809 24.0054 87.8722 22.7817 85.7695 24.0647C83.6667 25.3478 83.4766 28.7573 81.5164 30.4562C78.7128 32.8322 74.2696 30.6106 70.7175 31.6442C67.9732 32.4639 66.2625 35.0894 64.433 37.2872C62.6035 39.485 59.883 41.5996 57.1387 40.7799C57.2026 38.2966 57.5534 35.8289 58.1841 33.4262Z" fill="#263238"/>
<path d="M91.5075 19.9897C93.5033 19.4195 97.5781 18.1364 98.6355 16.4257C101.011 12.6835 105.039 10.1174 109.209 10.3431C111.37 10.5139 113.418 11.3789 115.047 12.8091C116.677 14.2393 117.8 16.1581 118.249 18.279C120.846 18.373 123.37 19.1652 125.554 20.5722C127.739 21.9792 129.504 23.9489 130.664 26.2742C130.964 26.875 131.226 27.4939 131.448 28.1275C132.236 29.5174 132.71 31.0629 132.837 32.6554C132.964 34.2479 132.742 35.849 132.185 37.3464C131.496 39.1403 130.319 41.148 131.246 42.8349C132.173 44.5219 134.572 44.6051 136.426 45.2109C138.024 45.8127 139.36 46.958 140.198 48.446C141.037 49.934 141.325 51.6697 141.011 53.3488C140.585 54.4869 140.387 55.698 140.429 56.9128C140.883 58.1059 141.621 59.1703 142.58 60.0134C143.622 61.2301 144.325 62.7007 144.616 64.2763C144.907 65.8519 144.776 67.4765 144.237 68.9853C143.698 70.4942 142.769 71.8337 141.546 72.8681C140.322 73.9024 138.847 74.5949 137.269 74.8753C135.856 75.1248 134.323 75.0654 133.099 75.8257C131.686 76.6929 131.08 78.3799 130.082 79.6986C129.104 80.9486 127.769 81.8723 126.254 82.3475C124.74 82.8226 123.117 82.8269 121.6 82.3597C120.996 82.1469 120.421 81.8596 119.889 81.5043C119.313 82.2623 118.554 82.8615 117.684 83.2459C116.813 83.6304 115.859 83.7873 114.911 83.7021L115.493 50.4381C115.312 50.8446 115.034 51.2008 114.684 51.4761C114.335 51.7513 113.923 51.9374 113.485 52.0182C108.151 53.2062 107.367 42.2291 108.555 39.2591C106.549 37.6088 104.753 35.7175 103.209 33.6279C101.736 31.4539 100.441 25.5139 100.75 22.8409C98.8255 22.9478 90.6402 20.2273 91.5075 19.9897Z" fill="#263238"/>
<path d="M114.032 53.1349C114.198 49.7491 118.333 49.0245 121.255 50.7589C122.859 51.6856 124.094 53.5508 123.94 57.1385C123.548 66.7019 114.032 64.3378 114.032 64.0645C114.032 63.7913 113.83 57.0553 114.032 53.1349Z" fill="#FFBF9D"/>
<path d="M117.097 60.5243C117.097 60.5243 117.263 60.6431 117.537 60.7856C117.925 60.977 118.374 61.0069 118.784 60.8688C119.806 60.5362 120.721 58.968 120.839 57.2454C120.894 56.4359 120.768 55.6244 120.471 54.8694C120.395 54.5695 120.247 54.2927 120.04 54.0629C119.833 53.8331 119.573 53.6573 119.283 53.5507C119.095 53.4872 118.889 53.4943 118.706 53.5708C118.522 53.6473 118.373 53.7879 118.285 53.9665C118.143 54.2279 118.19 54.418 118.143 54.4298C118.095 54.4417 117.941 54.2635 118.036 53.8715C118.096 53.635 118.239 53.4282 118.44 53.2894C118.71 53.102 119.041 53.0255 119.366 53.0755C119.756 53.1713 120.115 53.3643 120.41 53.6364C120.705 53.9086 120.926 54.251 121.053 54.6318C121.426 55.4794 121.585 56.4053 121.516 57.3286C121.374 59.2531 120.328 61.0114 118.915 61.3559C118.655 61.418 118.385 61.4214 118.124 61.3659C117.863 61.3104 117.618 61.1974 117.406 61.0351C117.109 60.75 117.061 60.5362 117.097 60.5243Z" fill="#FF9A6C"/>
<path d="M104.683 17.4119C105.428 17.7933 106.077 18.3374 106.583 19.0038C107.534 20.3106 107.89 22.8054 107.296 25.6209L107.237 25.8585H107.474C108.85 26.2302 110.121 26.9131 111.19 27.8545C112.259 28.7959 113.097 29.9706 113.64 31.2877C113.933 32.0472 114.098 32.8502 114.127 33.6637C114.107 34.5146 114.008 35.3617 113.83 36.1941C113.642 37.0905 113.523 38 113.474 38.9147C113.401 39.9142 113.664 40.9095 114.222 41.7421C115.471 43.3218 117.108 44.5499 118.974 45.3061C120.603 46.018 122.101 46.9978 123.405 48.2048C125.566 50.3299 126.84 53.1959 126.969 56.2238C127.05 58.2777 126.617 60.3192 125.71 62.1638C125.081 63.4706 124.522 64.1003 124.593 64.1359C124.665 64.1715 124.748 64.0052 125.009 63.7082C125.36 63.2592 125.674 62.7824 125.948 62.2826C127.218 59.9672 127.699 57.3007 127.318 54.6873C126.936 52.0739 125.713 49.6563 123.833 47.8009C122.489 46.5364 120.943 45.5046 119.259 44.7477C117.509 44.031 115.968 42.8825 114.781 41.4095C113.723 39.9482 114.198 38.0593 114.472 36.3486C114.654 35.4728 114.753 34.5819 114.769 33.6875C114.727 32.8108 114.538 31.9475 114.21 31.1333C113.625 29.7353 112.72 28.4938 111.569 27.5078C110.418 26.5218 109.053 25.8186 107.581 25.4546L107.771 25.7516C108.33 22.8054 107.878 20.2274 106.797 18.8612C106.401 18.3509 105.887 17.9434 105.3 17.6732C105.109 17.5553 104.901 17.4672 104.683 17.4119Z" fill="#455A64"/>
<path d="M120.673 64.1004C119.923 63.296 118.99 62.6847 117.952 62.3184H118.154C117.964 62.2645 117.769 62.2287 117.572 62.2114C117.22 62.1105 116.852 62.0816 116.488 62.1265C116.125 62.1714 115.774 62.2892 115.458 62.4728C114.278 62.8932 113.298 63.7411 112.713 64.8488C112.258 65.8368 112.082 66.931 112.205 68.012C112.329 69.093 112.747 70.1193 113.414 70.9789C113.901 71.7505 114.609 72.358 115.445 72.7223C116.282 73.0867 117.209 73.191 118.105 73.022C119.002 72.8529 119.827 72.4181 120.474 71.7742C121.12 71.1302 121.558 70.3067 121.73 69.4107C122.012 68.5078 122.063 67.5485 121.879 66.6208C121.694 65.693 121.279 64.8264 120.673 64.1004Z" fill="#455A64"/>
<path d="M138.683 187.735L138.861 147.545L142.604 154.97L165.983 131.733C165.983 131.733 154.674 111.157 149.435 107.177C144.196 103.197 123.738 99.0513 122.419 98.2672C122.419 98.2672 117.121 107.201 100.608 112.155C84.0946 117.109 70.2425 95.7961 70.2425 95.7961L51.4603 96.6277C51.4603 96.6277 49.8683 124.831 49.5832 144.148C49.4882 149.826 49.8208 154.78 49.9634 157.964C50.593 171.994 64.7302 196.111 64.7302 196.111C64.7302 196.111 84.8074 203.239 106.049 200.637C127.29 198.035 138.683 187.735 138.683 187.735Z" fill="#455A64"/>
<path d="M51.4605 96.604C41.6595 98.6355 32.8921 110.991 22.4258 135.155L50.9378 156.467L51.4605 96.604Z" fill="#455A64"/>
<path d="M140.097 122.918C140.215 123.328 140.275 123.751 140.275 124.177C140.346 124.997 140.406 126.173 140.453 127.635C140.548 130.569 140.536 134.608 140.263 139.075C139.99 143.542 139.527 147.545 139.075 150.444C138.849 151.894 138.647 153.058 138.481 153.854C138.428 154.264 138.316 154.664 138.148 155.042C138.192 153.45 138.335 151.863 138.576 150.29C138.897 147.391 139.289 143.387 139.562 138.944C139.835 134.501 139.919 130.474 139.954 127.563C139.904 126.013 139.951 124.462 140.097 122.918Z" fill="#263238"/>
<path d="M52.3507 116.622C52.3599 117.152 52.3121 117.682 52.2081 118.202C52.0418 119.39 51.8279 120.78 51.5903 122.455C51.0676 126.019 50.4023 131.009 49.9509 136.509C49.5996 141.213 49.5124 145.933 49.6895 150.646C49.7727 152.345 49.844 153.771 49.8915 154.935C49.9482 155.46 49.9482 155.99 49.8915 156.515C49.7313 156.01 49.6355 155.487 49.6064 154.959C49.4638 153.949 49.3213 152.488 49.1787 150.67C48.8376 145.924 48.8376 141.16 49.1787 136.414C49.5713 131.711 50.2098 127.032 51.0914 122.396C51.424 120.614 51.7091 119.164 51.9348 118.178C51.9983 117.642 52.1383 117.118 52.3507 116.622Z" fill="#263238"/>
<path d="M97.0911 131.341L98.0415 169.714C98.0575 170.651 97.7037 171.557 97.0566 172.235C96.4095 172.913 95.5214 173.309 94.5844 173.337L78.4157 173.717C77.5141 173.72 76.645 173.38 75.9837 172.767C75.3223 172.154 74.9178 171.314 74.8517 170.415L72.2381 132.398C72.2093 131.927 72.2743 131.455 72.4293 131.01C72.5844 130.564 72.8264 130.153 73.1414 129.802C73.4564 129.45 73.838 129.165 74.2642 128.962C74.6903 128.759 75.1525 128.643 75.6239 128.621L93.4439 127.825C93.9149 127.814 94.3835 127.896 94.8224 128.067C95.2613 128.239 95.662 128.495 96.0011 128.822C96.3403 129.149 96.6113 129.54 96.7984 129.972C96.9854 130.405 97.0849 130.87 97.0911 131.341Z" fill="#263238"/>
<path d="M83.013 135.701C83.0251 135.997 83.1248 136.283 83.2996 136.523C83.4744 136.762 83.7163 136.944 83.9947 137.046C84.2732 137.148 84.5755 137.164 84.8635 137.094C85.1515 137.024 85.4122 136.87 85.6124 136.651C85.8126 136.432 85.9434 136.159 85.9883 135.866C86.0331 135.573 85.9899 135.274 85.8642 135.005C85.7384 134.737 85.5358 134.512 85.282 134.358C85.0282 134.205 84.7347 134.131 84.4386 134.145C84.0436 134.163 83.6719 134.337 83.4048 134.629C83.1377 134.92 82.9968 135.306 83.013 135.701Z" fill="white"/>
<path d="M72.9746 141.213C72.9746 141.213 68.5909 146.904 67.0346 149.411C65.4784 151.917 65.1814 159.853 65.1814 159.853V165.377L56.4258 169.262L63.1855 188.116L76.4674 176.628L89.8799 174.109C89.8799 174.109 96.0693 167.741 97.0079 164.89C97.5801 163.279 97.8343 161.573 97.7563 159.865C98.9928 156.908 100.079 153.891 101.011 150.824C101.325 148.681 101.432 146.513 101.332 144.35C101.332 144.35 99.6096 143.934 98.2671 146.797L100.37 141.95C100.37 141.95 98.9918 138.386 95.9862 142.021C92.9805 145.656 88.0147 151.882 88.0147 151.882L82.3242 156.847L81.552 156.028C81.552 156.028 91.5668 142.663 91.2223 140.358C90.8778 138.053 88.68 138.041 86.4703 140.572C84.2606 143.102 75.3269 155.695 74.1151 155.873C72.9033 156.051 72.4638 154.364 72.4638 154.364L73.1053 149.696L73.5449 148.71L72.9746 141.213Z" fill="#FFBF9D"/>
<path d="M90.2363 159.722C90.3919 159.583 90.5278 159.423 90.6402 159.247C90.8897 158.926 91.2343 158.463 91.6501 157.881C92.4817 156.693 93.5984 155.077 94.7507 153.224C95.9031 151.371 96.8654 149.66 97.5425 148.365C97.8752 147.735 98.1365 147.177 98.3028 146.856C98.4046 146.675 98.4881 146.484 98.5523 146.286C98.4126 146.443 98.2965 146.619 98.2078 146.809L97.3643 148.27C96.6396 149.458 95.6417 151.216 94.5012 153.022C93.3608 154.828 92.2678 156.586 91.4837 157.774C91.1155 158.332 90.8066 158.808 90.5452 159.188C90.4246 159.355 90.3212 159.534 90.2363 159.722Z" fill="#FF9A6C"/>
<path d="M93.3613 165.686C94.3365 164.451 95.2409 163.162 96.07 161.825C96.9698 160.533 97.791 159.188 98.5291 157.798C97.5539 159.033 96.6496 160.322 95.8205 161.659C94.9176 162.949 94.0962 164.294 93.3613 165.686Z" fill="#FF9A6C"/>
<path d="M26.4648 138.208C26.4648 138.208 11.6504 177.02 10.9614 190.48C10.3199 202.716 20.9168 210.106 28.9002 208.941C47.6706 206.221 76.4915 176.675 76.4915 176.675L65.6569 165.163L40.3406 176.509L48.2052 154.471L26.4648 138.208Z" fill="#FFBF9D"/>
<g opacity="0.3">
<path d="M165.579 174.786C168.727 167.112 166.375 157.834 160.827 151.739C155.279 145.645 146.844 142.532 138.564 142.235C131.554 141.99 124.604 143.6 118.417 146.903C112.23 150.206 107.024 155.085 103.328 161.045C99.6315 167.006 97.5749 173.837 97.3663 180.848C97.1576 187.858 98.8043 194.8 102.14 200.97C106.182 200.727 110.147 199.753 113.841 198.095C118.784 195.553 165.579 174.786 165.579 174.786Z" fill="black"/>
</g>
<path d="M152.454 207.999C167.44 199.066 172.346 179.676 163.413 164.69C154.48 149.705 135.09 144.798 120.104 153.732C105.119 162.665 100.212 182.055 109.146 197.04C118.079 212.026 137.469 216.932 152.454 207.999Z" fill="#86B282"/>
<path d="M134.014 195.588L117.632 181.855L122.431 176.14L133.408 185.347L150.254 167.444L155.695 172.553L134.014 195.588Z" fill="white"/>
</svg>
