<svg width="360" height="211" viewBox="0 0 360 211" fill="none" xmlns="http://www.w3.org/2000/svg">
<rect width="360" height="211" fill="#BCF5CC"/>
<path d="M17.12 28V16.48H18.816L24.488 25.04V16.48H26.184V28H24.488L18.816 19.432V28H17.12ZM32.1689 28.24C31.3049 28.24 30.5555 28.0453 29.9209 27.656C29.2862 27.2667 28.7955 26.7307 28.4489 26.048C28.1075 25.36 27.9369 24.568 27.9369 23.672C27.9369 22.7707 28.1129 21.9787 28.4649 21.296C28.8169 20.608 29.3102 20.0747 29.9449 19.696C30.5795 19.312 31.3209 19.12 32.1689 19.12C33.0329 19.12 33.7822 19.3147 34.4169 19.704C35.0515 20.0933 35.5422 20.6293 35.8889 21.312C36.2355 21.9947 36.4089 22.7813 36.4089 23.672C36.4089 24.5733 36.2329 25.368 35.8809 26.056C35.5342 26.7387 35.0435 27.2747 34.4089 27.664C33.7742 28.048 33.0275 28.24 32.1689 28.24ZM32.1689 26.664C32.9955 26.664 33.6115 26.3867 34.0169 25.832C34.4275 25.272 34.6329 24.552 34.6329 23.672C34.6329 22.7707 34.4249 22.0507 34.0089 21.512C33.5982 20.968 32.9849 20.696 32.1689 20.696C31.6089 20.696 31.1475 20.824 30.7849 21.08C30.4222 21.3307 30.1529 21.68 29.9769 22.128C29.8009 22.5707 29.7129 23.0853 29.7129 23.672C29.7129 24.5787 29.9209 25.304 30.3369 25.848C30.7529 26.392 31.3635 26.664 32.1689 26.664ZM41.3146 28.232C40.264 28.232 39.408 28 38.7466 27.536C38.0853 27.072 37.68 26.4187 37.5306 25.576L39.2426 25.312C39.3493 25.76 39.5946 26.1147 39.9786 26.376C40.368 26.632 40.8506 26.76 41.4266 26.76C41.9493 26.76 42.3573 26.6533 42.6506 26.44C42.9493 26.2267 43.0986 25.9333 43.0986 25.56C43.0986 25.3413 43.0453 25.1653 42.9386 25.032C42.8373 24.8933 42.6213 24.7627 42.2906 24.64C41.96 24.5173 41.456 24.3653 40.7786 24.184C40.0373 23.992 39.448 23.7867 39.0106 23.568C38.5786 23.344 38.2693 23.0853 38.0826 22.792C37.9013 22.4933 37.8106 22.1333 37.8106 21.712C37.8106 21.1893 37.9493 20.7333 38.2266 20.344C38.504 19.9547 38.8933 19.6533 39.3946 19.44C39.9013 19.2267 40.4933 19.12 41.1706 19.12C41.832 19.12 42.4213 19.224 42.9386 19.432C43.456 19.64 43.8746 19.936 44.1946 20.32C44.5146 20.6987 44.7066 21.144 44.7706 21.656L43.0586 21.968C43 21.552 42.8053 21.224 42.4746 20.984C42.144 20.744 41.7146 20.6133 41.1866 20.592C40.68 20.5707 40.2693 20.656 39.9546 20.848C39.64 21.0347 39.4826 21.2933 39.4826 21.624C39.4826 21.816 39.5413 21.9787 39.6586 22.112C39.7813 22.2453 40.016 22.3733 40.3626 22.496C40.7093 22.6187 41.2213 22.7653 41.8986 22.936C42.624 23.1227 43.2 23.3307 43.6266 23.56C44.0533 23.784 44.3573 24.0533 44.5386 24.368C44.7253 24.6773 44.8186 25.0533 44.8186 25.496C44.8186 26.3493 44.5066 27.0187 43.8826 27.504C43.264 27.9893 42.408 28.232 41.3146 28.232ZM50.3408 28.24C49.4768 28.24 48.7274 28.0453 48.0928 27.656C47.4581 27.2667 46.9674 26.7307 46.6208 26.048C46.2794 25.36 46.1088 24.568 46.1088 23.672C46.1088 22.7707 46.2848 21.9787 46.6368 21.296C46.9888 20.608 47.4821 20.0747 48.1168 19.696C48.7514 19.312 49.4928 19.12 50.3408 19.12C51.2048 19.12 51.9541 19.3147 52.5888 19.704C53.2234 20.0933 53.7141 20.6293 54.0608 21.312C54.4074 21.9947 54.5808 22.7813 54.5808 23.672C54.5808 24.5733 54.4048 25.368 54.0528 26.056C53.7061 26.7387 53.2154 27.2747 52.5808 27.664C51.9461 28.048 51.1994 28.24 50.3408 28.24ZM50.3408 26.664C51.1674 26.664 51.7834 26.3867 52.1888 25.832C52.5994 25.272 52.8048 24.552 52.8048 23.672C52.8048 22.7707 52.5968 22.0507 52.1808 21.512C51.7701 20.968 51.1568 20.696 50.3408 20.696C49.7808 20.696 49.3194 20.824 48.9568 21.08C48.5941 21.3307 48.3248 21.68 48.1488 22.128C47.9728 22.5707 47.8848 23.0853 47.8848 23.672C47.8848 24.5787 48.0928 25.304 48.5088 25.848C48.9248 26.392 49.5354 26.664 50.3408 26.664ZM61.2828 28C60.7388 28.1067 60.2054 28.152 59.6828 28.136C59.1601 28.12 58.6934 28.0187 58.2828 27.832C57.8721 27.6453 57.5628 27.352 57.3548 26.952C57.1681 26.5947 57.0668 26.232 57.0508 25.864C57.0401 25.4907 57.0348 25.0693 57.0348 24.6V16.96H58.7148V24.52C58.7148 24.8667 58.7174 25.168 58.7228 25.424C58.7334 25.68 58.7894 25.896 58.8908 26.072C59.0828 26.4027 59.3868 26.592 59.8028 26.64C60.2241 26.6827 60.7174 26.664 61.2828 26.584V28ZM55.3788 20.704V19.36H61.2828V20.704H55.3788ZM63.1044 28V19.36H64.5924V21.456L64.3844 21.184C64.491 20.9067 64.6297 20.6533 64.8004 20.424C64.971 20.1893 65.1684 19.9973 65.3924 19.848C65.611 19.688 65.8537 19.5653 66.1204 19.48C66.3924 19.3893 66.6697 19.336 66.9524 19.32C67.235 19.2987 67.507 19.312 67.7684 19.36V20.928C67.4857 20.8533 67.171 20.832 66.8244 20.864C66.483 20.896 66.1684 21.0053 65.8804 21.192C65.6084 21.368 65.3924 21.5813 65.2324 21.832C65.0777 22.0827 64.9657 22.3627 64.8964 22.672C64.827 22.976 64.7924 23.2987 64.7924 23.64V28H63.1044ZM72.8876 28.24C72.0236 28.24 71.2743 28.0453 70.6396 27.656C70.005 27.2667 69.5143 26.7307 69.1676 26.048C68.8263 25.36 68.6556 24.568 68.6556 23.672C68.6556 22.7707 68.8316 21.9787 69.1836 21.296C69.5356 20.608 70.029 20.0747 70.6636 19.696C71.2983 19.312 72.0396 19.12 72.8876 19.12C73.7516 19.12 74.501 19.3147 75.1356 19.704C75.7703 20.0933 76.261 20.6293 76.6076 21.312C76.9543 21.9947 77.1276 22.7813 77.1276 23.672C77.1276 24.5733 76.9516 25.368 76.5996 26.056C76.253 26.7387 75.7623 27.2747 75.1276 27.664C74.493 28.048 73.7463 28.24 72.8876 28.24ZM72.8876 26.664C73.7143 26.664 74.3303 26.3867 74.7356 25.832C75.1463 25.272 75.3516 24.552 75.3516 23.672C75.3516 22.7707 75.1436 22.0507 74.7276 21.512C74.317 20.968 73.7036 20.696 72.8876 20.696C72.3276 20.696 71.8663 20.824 71.5036 21.08C71.141 21.3307 70.8716 21.68 70.6956 22.128C70.5196 22.5707 70.4316 23.0853 70.4316 23.672C70.4316 24.5787 70.6396 25.304 71.0556 25.848C71.4716 26.392 72.0823 26.664 72.8876 26.664ZM82.0334 28.232C80.9827 28.232 80.1267 28 79.4654 27.536C78.804 27.072 78.3987 26.4187 78.2494 25.576L79.9614 25.312C80.068 25.76 80.3134 26.1147 80.6974 26.376C81.0867 26.632 81.5694 26.76 82.1454 26.76C82.668 26.76 83.076 26.6533 83.3694 26.44C83.668 26.2267 83.8174 25.9333 83.8174 25.56C83.8174 25.3413 83.764 25.1653 83.6574 25.032C83.556 24.8933 83.34 24.7627 83.0094 24.64C82.6787 24.5173 82.1747 24.3653 81.4974 24.184C80.756 23.992 80.1667 23.7867 79.7294 23.568C79.2974 23.344 78.988 23.0853 78.8014 22.792C78.62 22.4933 78.5294 22.1333 78.5294 21.712C78.5294 21.1893 78.668 20.7333 78.9454 20.344C79.2227 19.9547 79.612 19.6533 80.1134 19.44C80.62 19.2267 81.212 19.12 81.8894 19.12C82.5507 19.12 83.14 19.224 83.6574 19.432C84.1747 19.64 84.5934 19.936 84.9134 20.32C85.2334 20.6987 85.4254 21.144 85.4894 21.656L83.7774 21.968C83.7187 21.552 83.524 21.224 83.1934 20.984C82.8627 20.744 82.4334 20.6133 81.9054 20.592C81.3987 20.5707 80.988 20.656 80.6734 20.848C80.3587 21.0347 80.2014 21.2933 80.2014 21.624C80.2014 21.816 80.26 21.9787 80.3774 22.112C80.5 22.2453 80.7347 22.3733 81.0814 22.496C81.428 22.6187 81.94 22.7653 82.6174 22.936C83.3427 23.1227 83.9187 23.3307 84.3454 23.56C84.772 23.784 85.076 24.0533 85.2574 24.368C85.444 24.6773 85.5374 25.0533 85.5374 25.496C85.5374 26.3493 85.2254 27.0187 84.6014 27.504C83.9827 27.9893 83.1267 28.232 82.0334 28.232Z" fill="black"/>
<path d="M17.12 58V46.48H18.816L24.488 55.04V46.48H26.184V58H24.488L18.816 49.432V58H17.12ZM31.6729 58.232C31.0755 58.232 30.5742 58.136 30.1689 57.944C29.7635 57.752 29.4329 57.5013 29.1769 57.192C28.9262 56.8773 28.7342 56.536 28.6009 56.168C28.4675 55.8 28.3769 55.44 28.3289 55.088C28.2809 54.736 28.2569 54.4267 28.2569 54.16V49.36H29.9529V53.608C29.9529 53.944 29.9795 54.2907 30.0329 54.648C30.0915 55 30.1982 55.328 30.3529 55.632C30.5129 55.936 30.7342 56.1813 31.0169 56.368C31.3049 56.5547 31.6782 56.648 32.1369 56.648C32.4355 56.648 32.7182 56.6 32.9849 56.504C33.2515 56.4027 33.4835 56.2427 33.6809 56.024C33.8835 55.8053 34.0409 55.5173 34.1529 55.16C34.2702 54.8027 34.3289 54.368 34.3289 53.856L35.3689 54.248C35.3689 55.032 35.2222 55.7253 34.9289 56.328C34.6355 56.9253 34.2142 57.392 33.6649 57.728C33.1155 58.064 32.4515 58.232 31.6729 58.232ZM34.5289 58V55.504H34.3289V49.36H36.0169V58H34.5289ZM42.0926 58.24C41.234 58.24 40.4793 58.0533 39.8286 57.68C39.1833 57.3013 38.6793 56.776 38.3166 56.104C37.9593 55.4267 37.7806 54.6427 37.7806 53.752C37.7806 52.808 37.9566 51.9893 38.3086 51.296C38.666 50.6027 39.162 50.0667 39.7966 49.688C40.4313 49.3093 41.17 49.12 42.0126 49.12C42.8926 49.12 43.642 49.3253 44.2606 49.736C44.8793 50.1413 45.3406 50.72 45.6446 51.472C45.954 52.224 46.0766 53.1173 46.0126 54.152H44.3406V53.544C44.33 52.5413 44.138 51.8 43.7646 51.32C43.3966 50.84 42.834 50.6 42.0766 50.6C41.2393 50.6 40.61 50.864 40.1886 51.392C39.7673 51.92 39.5566 52.6827 39.5566 53.68C39.5566 54.6293 39.7673 55.3653 40.1886 55.888C40.61 56.4053 41.218 56.664 42.0126 56.664C42.5353 56.664 42.986 56.5467 43.3646 56.312C43.7486 56.072 44.0473 55.7307 44.2606 55.288L45.9006 55.808C45.5646 56.5813 45.0553 57.1813 44.3726 57.608C43.69 58.0293 42.93 58.24 42.0926 58.24ZM39.0126 54.152V52.848H45.1806V54.152H39.0126ZM51.1115 58.232C50.0608 58.232 49.2048 58 48.5435 57.536C47.8822 57.072 47.4768 56.4187 47.3275 55.576L49.0395 55.312C49.1462 55.76 49.3915 56.1147 49.7755 56.376C50.1648 56.632 50.6475 56.76 51.2235 56.76C51.7462 56.76 52.1542 56.6533 52.4475 56.44C52.7462 56.2267 52.8955 55.9333 52.8955 55.56C52.8955 55.3413 52.8422 55.1653 52.7355 55.032C52.6342 54.8933 52.4182 54.7627 52.0875 54.64C51.7568 54.5173 51.2528 54.3653 50.5755 54.184C49.8342 53.992 49.2448 53.7867 48.8075 53.568C48.3755 53.344 48.0662 53.0853 47.8795 52.792C47.6982 52.4933 47.6075 52.1333 47.6075 51.712C47.6075 51.1893 47.7462 50.7333 48.0235 50.344C48.3008 49.9547 48.6902 49.6533 49.1915 49.44C49.6982 49.2267 50.2902 49.12 50.9675 49.12C51.6288 49.12 52.2182 49.224 52.7355 49.432C53.2528 49.64 53.6715 49.936 53.9915 50.32C54.3115 50.6987 54.5035 51.144 54.5675 51.656L52.8555 51.968C52.7968 51.552 52.6022 51.224 52.2715 50.984C51.9408 50.744 51.5115 50.6133 50.9835 50.592C50.4768 50.5707 50.0662 50.656 49.7515 50.848C49.4368 51.0347 49.2795 51.2933 49.2795 51.624C49.2795 51.816 49.3382 51.9787 49.4555 52.112C49.5782 52.2453 49.8128 52.3733 50.1595 52.496C50.5062 52.6187 51.0182 52.7653 51.6955 52.936C52.4208 53.1227 52.9968 53.3307 53.4235 53.56C53.8502 53.784 54.1542 54.0533 54.3355 54.368C54.5222 54.6773 54.6155 55.0533 54.6155 55.496C54.6155 56.3493 54.3035 57.0187 53.6795 57.504C53.0608 57.9893 52.2048 58.232 51.1115 58.232ZM61.3296 58C60.7856 58.1067 60.2523 58.152 59.7296 58.136C59.207 58.12 58.7403 58.0187 58.3296 57.832C57.919 57.6453 57.6096 57.352 57.4016 56.952C57.215 56.5947 57.1136 56.232 57.0976 55.864C57.087 55.4907 57.0816 55.0693 57.0816 54.6V46.96H58.7616V54.52C58.7616 54.8667 58.7643 55.168 58.7696 55.424C58.7803 55.68 58.8363 55.896 58.9376 56.072C59.1296 56.4027 59.4336 56.592 59.8496 56.64C60.271 56.6827 60.7643 56.664 61.3296 56.584V58ZM55.4256 50.704V49.36H61.3296V50.704H55.4256ZM63.1513 58V49.36H64.6393V51.456L64.4313 51.184C64.5379 50.9067 64.6766 50.6533 64.8473 50.424C65.0179 50.1893 65.2153 49.9973 65.4393 49.848C65.6579 49.688 65.9006 49.5653 66.1673 49.48C66.4393 49.3893 66.7166 49.336 66.9993 49.32C67.2819 49.2987 67.5539 49.312 67.8153 49.36V50.928C67.5326 50.8533 67.2179 50.832 66.8713 50.864C66.5299 50.896 66.2153 51.0053 65.9273 51.192C65.6553 51.368 65.4393 51.5813 65.2793 51.832C65.1246 52.0827 65.0126 52.3627 64.9433 52.672C64.8739 52.976 64.8393 53.2987 64.8393 53.64V58H63.1513ZM72.9345 58.24C72.0705 58.24 71.3212 58.0453 70.6865 57.656C70.0518 57.2667 69.5612 56.7307 69.2145 56.048C68.8732 55.36 68.7025 54.568 68.7025 53.672C68.7025 52.7707 68.8785 51.9787 69.2305 51.296C69.5825 50.608 70.0758 50.0747 70.7105 49.696C71.3452 49.312 72.0865 49.12 72.9345 49.12C73.7985 49.12 74.5478 49.3147 75.1825 49.704C75.8172 50.0933 76.3078 50.6293 76.6545 51.312C77.0012 51.9947 77.1745 52.7813 77.1745 53.672C77.1745 54.5733 76.9985 55.368 76.6465 56.056C76.2998 56.7387 75.8092 57.2747 75.1745 57.664C74.5398 58.048 73.7932 58.24 72.9345 58.24ZM72.9345 56.664C73.7612 56.664 74.3772 56.3867 74.7825 55.832C75.1932 55.272 75.3985 54.552 75.3985 53.672C75.3985 52.7707 75.1905 52.0507 74.7745 51.512C74.3638 50.968 73.7505 50.696 72.9345 50.696C72.3745 50.696 71.9132 50.824 71.5505 51.08C71.1878 51.3307 70.9185 51.68 70.7425 52.128C70.5665 52.5707 70.4785 53.0853 70.4785 53.672C70.4785 54.5787 70.6865 55.304 71.1025 55.848C71.5185 56.392 72.1292 56.664 72.9345 56.664ZM82.0803 58.232C81.0296 58.232 80.1736 58 79.5123 57.536C78.8509 57.072 78.4456 56.4187 78.2963 55.576L80.0082 55.312C80.1149 55.76 80.3603 56.1147 80.7443 56.376C81.1336 56.632 81.6163 56.76 82.1923 56.76C82.7149 56.76 83.1229 56.6533 83.4163 56.44C83.7149 56.2267 83.8643 55.9333 83.8643 55.56C83.8643 55.3413 83.8109 55.1653 83.7043 55.032C83.6029 54.8933 83.3869 54.7627 83.0563 54.64C82.7256 54.5173 82.2216 54.3653 81.5443 54.184C80.8029 53.992 80.2136 53.7867 79.7763 53.568C79.3443 53.344 79.0349 53.0853 78.8483 52.792C78.6669 52.4933 78.5763 52.1333 78.5763 51.712C78.5763 51.1893 78.7149 50.7333 78.9923 50.344C79.2696 49.9547 79.6589 49.6533 80.1603 49.44C80.6669 49.2267 81.2589 49.12 81.9363 49.12C82.5976 49.12 83.1869 49.224 83.7043 49.432C84.2216 49.64 84.6403 49.936 84.9603 50.32C85.2803 50.6987 85.4723 51.144 85.5363 51.656L83.8243 51.968C83.7656 51.552 83.5709 51.224 83.2403 50.984C82.9096 50.744 82.4803 50.6133 81.9523 50.592C81.4456 50.5707 81.0349 50.656 80.7203 50.848C80.4056 51.0347 80.2483 51.2933 80.2483 51.624C80.2483 51.816 80.3069 51.9787 80.4243 52.112C80.5469 52.2453 80.7816 52.3733 81.1283 52.496C81.4749 52.6187 81.9869 52.7653 82.6643 52.936C83.3896 53.1227 83.9656 53.3307 84.3923 53.56C84.8189 53.784 85.1229 54.0533 85.3043 54.368C85.4909 54.6773 85.5843 55.0533 85.5843 55.496C85.5843 56.3493 85.2723 57.0187 84.6483 57.504C84.0296 57.9893 83.1736 58.232 82.0803 58.232ZM93.8615 58.232C92.8108 58.232 91.9548 58 91.2935 57.536C90.6322 57.072 90.2268 56.4187 90.0775 55.576L91.7895 55.312C91.8962 55.76 92.1415 56.1147 92.5255 56.376C92.9148 56.632 93.3975 56.76 93.9735 56.76C94.4962 56.76 94.9042 56.6533 95.1975 56.44C95.4962 56.2267 95.6455 55.9333 95.6455 55.56C95.6455 55.3413 95.5922 55.1653 95.4855 55.032C95.3842 54.8933 95.1682 54.7627 94.8375 54.64C94.5068 54.5173 94.0028 54.3653 93.3255 54.184C92.5842 53.992 91.9948 53.7867 91.5575 53.568C91.1255 53.344 90.8162 53.0853 90.6295 52.792C90.4482 52.4933 90.3575 52.1333 90.3575 51.712C90.3575 51.1893 90.4962 50.7333 90.7735 50.344C91.0508 49.9547 91.4402 49.6533 91.9415 49.44C92.4482 49.2267 93.0402 49.12 93.7175 49.12C94.3788 49.12 94.9682 49.224 95.4855 49.432C96.0028 49.64 96.4215 49.936 96.7415 50.32C97.0615 50.6987 97.2535 51.144 97.3175 51.656L95.6055 51.968C95.5468 51.552 95.3522 51.224 95.0215 50.984C94.6908 50.744 94.2615 50.6133 93.7335 50.592C93.2268 50.5707 92.8162 50.656 92.5015 50.848C92.1868 51.0347 92.0295 51.2933 92.0295 51.624C92.0295 51.816 92.0882 51.9787 92.2055 52.112C92.3282 52.2453 92.5628 52.3733 92.9095 52.496C93.2562 52.6187 93.7682 52.7653 94.4455 52.936C95.1708 53.1227 95.7468 53.3307 96.1735 53.56C96.6002 53.784 96.9042 54.0533 97.0855 54.368C97.2722 54.6773 97.3655 55.0533 97.3655 55.496C97.3655 56.3493 97.0535 57.0187 96.4295 57.504C95.8108 57.9893 94.9548 58.232 93.8615 58.232ZM102.968 58.24C102.109 58.24 101.354 58.0533 100.704 57.68C100.058 57.3013 99.5543 56.776 99.1916 56.104C98.8343 55.4267 98.6556 54.6427 98.6556 53.752C98.6556 52.808 98.8316 51.9893 99.1836 51.296C99.541 50.6027 100.037 50.0667 100.672 49.688C101.306 49.3093 102.045 49.12 102.888 49.12C103.768 49.12 104.517 49.3253 105.136 49.736C105.754 50.1413 106.216 50.72 106.52 51.472C106.829 52.224 106.952 53.1173 106.888 54.152H105.216V53.544C105.205 52.5413 105.013 51.8 104.64 51.32C104.272 50.84 103.709 50.6 102.952 50.6C102.114 50.6 101.485 50.864 101.064 51.392C100.642 51.92 100.432 52.6827 100.432 53.68C100.432 54.6293 100.642 55.3653 101.064 55.888C101.485 56.4053 102.093 56.664 102.888 56.664C103.41 56.664 103.861 56.5467 104.24 56.312C104.624 56.072 104.922 55.7307 105.136 55.288L106.776 55.808C106.44 56.5813 105.93 57.1813 105.248 57.608C104.565 58.0293 103.805 58.24 102.968 58.24ZM99.8876 54.152V52.848H106.056V54.152H99.8876ZM108.683 58V49.36H110.171V51.456L109.963 51.184C110.069 50.9067 110.208 50.6533 110.379 50.424C110.549 50.1893 110.747 49.9973 110.971 49.848C111.189 49.688 111.432 49.5653 111.699 49.48C111.971 49.3893 112.248 49.336 112.531 49.32C112.813 49.2987 113.085 49.312 113.347 49.36V50.928C113.064 50.8533 112.749 50.832 112.403 50.864C112.061 50.896 111.747 51.0053 111.459 51.192C111.187 51.368 110.971 51.5813 110.811 51.832C110.656 52.0827 110.544 52.3627 110.475 52.672C110.405 52.976 110.371 53.2987 110.371 53.64V58H108.683ZM117.206 58L114.07 49.36H115.758L118.054 55.904L120.35 49.36H122.038L118.902 58H117.206ZM123.639 47.944V46.32H125.311V47.944H123.639ZM123.639 58V49.36H125.311V58H123.639ZM131.41 58.24C130.524 58.24 129.772 58.0427 129.154 57.648C128.535 57.2533 128.06 56.712 127.73 56.024C127.404 55.336 127.239 54.5547 127.234 53.68C127.239 52.7893 127.41 52.0027 127.746 51.32C128.082 50.632 128.562 50.0933 129.186 49.704C129.81 49.3147 130.559 49.12 131.434 49.12C132.378 49.12 133.183 49.3547 133.85 49.824C134.522 50.2933 134.964 50.936 135.178 51.752L133.514 52.232C133.348 51.7467 133.076 51.3707 132.698 51.104C132.324 50.832 131.895 50.696 131.41 50.696C130.86 50.696 130.41 50.8267 130.058 51.088C129.706 51.344 129.444 51.696 129.274 52.144C129.103 52.592 129.015 53.104 129.01 53.68C129.015 54.5707 129.218 55.2907 129.618 55.84C130.023 56.3893 130.62 56.664 131.41 56.664C131.948 56.664 132.383 56.5413 132.714 56.296C133.05 56.0453 133.306 55.688 133.482 55.224L135.178 55.624C134.895 56.4667 134.428 57.1147 133.778 57.568C133.127 58.016 132.338 58.24 131.41 58.24ZM136.733 47.944V46.32H138.405V47.944H136.733ZM136.733 58V49.36H138.405V58H136.733ZM144.56 58.24C143.696 58.24 142.946 58.0453 142.312 57.656C141.677 57.2667 141.186 56.7307 140.84 56.048C140.498 55.36 140.328 54.568 140.328 53.672C140.328 52.7707 140.504 51.9787 140.856 51.296C141.208 50.608 141.701 50.0747 142.336 49.696C142.97 49.312 143.712 49.12 144.56 49.12C145.424 49.12 146.173 49.3147 146.808 49.704C147.442 50.0933 147.933 50.6293 148.28 51.312C148.626 51.9947 148.8 52.7813 148.8 53.672C148.8 54.5733 148.624 55.368 148.272 56.056C147.925 56.7387 147.434 57.2747 146.8 57.664C146.165 58.048 145.418 58.24 144.56 58.24ZM144.56 56.664C145.386 56.664 146.002 56.3867 146.408 55.832C146.818 55.272 147.024 54.552 147.024 53.672C147.024 52.7707 146.816 52.0507 146.4 51.512C145.989 50.968 145.376 50.696 144.56 50.696C144 50.696 143.538 50.824 143.176 51.08C142.813 51.3307 142.544 51.68 142.368 52.128C142.192 52.5707 142.104 53.0853 142.104 53.672C142.104 54.5787 142.312 55.304 142.728 55.848C143.144 56.392 143.754 56.664 144.56 56.664ZM153.705 58.232C152.655 58.232 151.799 58 151.137 57.536C150.476 57.072 150.071 56.4187 149.921 55.576L151.633 55.312C151.74 55.76 151.985 56.1147 152.369 56.376C152.759 56.632 153.241 56.76 153.817 56.76C154.34 56.76 154.748 56.6533 155.041 56.44C155.34 56.2267 155.489 55.9333 155.489 55.56C155.489 55.3413 155.436 55.1653 155.329 55.032C155.228 54.8933 155.012 54.7627 154.681 54.64C154.351 54.5173 153.847 54.3653 153.169 54.184C152.428 53.992 151.839 53.7867 151.401 53.568C150.969 53.344 150.66 53.0853 150.473 52.792C150.292 52.4933 150.201 52.1333 150.201 51.712C150.201 51.1893 150.34 50.7333 150.617 50.344C150.895 49.9547 151.284 49.6533 151.785 49.44C152.292 49.2267 152.884 49.12 153.561 49.12C154.223 49.12 154.812 49.224 155.329 49.432C155.847 49.64 156.265 49.936 156.585 50.32C156.905 50.6987 157.097 51.144 157.161 51.656L155.449 51.968C155.391 51.552 155.196 51.224 154.865 50.984C154.535 50.744 154.105 50.6133 153.577 50.592C153.071 50.5707 152.66 50.656 152.345 50.848C152.031 51.0347 151.873 51.2933 151.873 51.624C151.873 51.816 151.932 51.9787 152.049 52.112C152.172 52.2453 152.407 52.3733 152.753 52.496C153.1 52.6187 153.612 52.7653 154.289 52.936C155.015 53.1227 155.591 53.3307 156.017 53.56C156.444 53.784 156.748 54.0533 156.929 54.368C157.116 54.6773 157.209 55.0533 157.209 55.496C157.209 56.3493 156.897 57.0187 156.273 57.504C155.655 57.9893 154.799 58.232 153.705 58.232Z" fill="black"/>
<path d="M17.32 88L21.064 76.48H23.472L27.216 88H25.48L22.032 77.488H22.464L19.056 88H17.32ZM19.264 85.4V83.832H25.28V85.4H19.264ZM29.0224 91.84L30.6944 87.288L30.7184 88.632L26.9504 79.36H28.6944L31.5104 86.52H30.9984L33.6864 79.36H35.3824L30.6144 91.84H29.0224ZM39.8916 88.232C39.2943 88.232 38.793 88.136 38.3876 87.944C37.9823 87.752 37.6516 87.5013 37.3956 87.192C37.145 86.8773 36.953 86.536 36.8196 86.168C36.6863 85.8 36.5956 85.44 36.5476 85.088C36.4996 84.736 36.4756 84.4267 36.4756 84.16V79.36H38.1716V83.608C38.1716 83.944 38.1983 84.2907 38.2516 84.648C38.3103 85 38.417 85.328 38.5716 85.632C38.7316 85.936 38.953 86.1813 39.2356 86.368C39.5236 86.5547 39.897 86.648 40.3556 86.648C40.6543 86.648 40.937 86.6 41.2036 86.504C41.4703 86.4027 41.7023 86.2427 41.8996 86.024C42.1023 85.8053 42.2596 85.5173 42.3716 85.16C42.489 84.8027 42.5476 84.368 42.5476 83.856L43.5876 84.248C43.5876 85.032 43.441 85.7253 43.1476 86.328C42.8543 86.9253 42.433 87.392 41.8836 87.728C41.3343 88.064 40.6703 88.232 39.8916 88.232ZM42.7476 88V85.504H42.5476V79.36H44.2356V88H42.7476ZM49.9114 88.24C49.106 88.24 48.41 88.04 47.8234 87.64C47.242 87.24 46.7914 86.696 46.4714 86.008C46.1567 85.3147 45.9994 84.536 45.9994 83.672C45.9994 82.8027 46.1594 82.0267 46.4794 81.344C46.7994 80.656 47.2527 80.1147 47.8394 79.72C48.4314 79.32 49.1327 79.12 49.9434 79.12C50.7594 79.12 51.4447 79.32 51.9994 79.72C52.5594 80.1147 52.9807 80.656 53.2634 81.344C53.5514 82.032 53.6954 82.808 53.6954 83.672C53.6954 84.536 53.5514 85.312 53.2634 86C52.9754 86.688 52.5514 87.2347 51.9914 87.64C51.4314 88.04 50.738 88.24 49.9114 88.24ZM50.1434 86.728C50.6927 86.728 51.1407 86.5973 51.4874 86.336C51.834 86.0747 52.0874 85.7147 52.2474 85.256C52.4074 84.7973 52.4874 84.2693 52.4874 83.672C52.4874 83.0747 52.4047 82.5467 52.2394 82.088C52.0794 81.6293 51.8287 81.272 51.4874 81.016C51.1514 80.76 50.722 80.632 50.1994 80.632C49.6447 80.632 49.1887 80.768 48.8314 81.04C48.474 81.312 48.2074 81.6773 48.0314 82.136C47.8607 82.5947 47.7754 83.1067 47.7754 83.672C47.7754 84.2427 47.8607 84.76 48.0314 85.224C48.2074 85.6827 48.4687 86.048 48.8154 86.32C49.1674 86.592 49.61 86.728 50.1434 86.728ZM52.4874 88V81.784H52.2954V76.48H53.9754V88H52.4874ZM58.6538 88.24C58.0138 88.24 57.4778 88.1227 57.0458 87.888C56.6138 87.648 56.2858 87.3333 56.0618 86.944C55.8431 86.5493 55.7338 86.1173 55.7338 85.648C55.7338 85.2107 55.8111 84.8267 55.9658 84.496C56.1204 84.1653 56.3498 83.8853 56.6538 83.656C56.9578 83.4213 57.3311 83.232 57.7738 83.088C58.1578 82.976 58.5924 82.8773 59.0778 82.792C59.5631 82.7067 60.0724 82.6267 60.6058 82.552C61.1444 82.4773 61.6778 82.4027 62.2058 82.328L61.5978 82.664C61.6084 81.9867 61.4644 81.4853 61.1658 81.16C60.8724 80.8293 60.3658 80.664 59.6458 80.664C59.1924 80.664 58.7764 80.7707 58.3978 80.984C58.0191 81.192 57.7551 81.5387 57.6058 82.024L56.0458 81.544C56.2591 80.8027 56.6644 80.2133 57.2618 79.776C57.8644 79.3387 58.6644 79.12 59.6618 79.12C60.4351 79.12 61.1071 79.2533 61.6778 79.52C62.2538 79.7813 62.6751 80.1973 62.9418 80.768C63.0804 81.0507 63.1658 81.3493 63.1978 81.664C63.2298 81.9787 63.2458 82.3173 63.2458 82.68V88H61.7658V86.024L62.0538 86.28C61.6964 86.9413 61.2404 87.4347 60.6858 87.76C60.1364 88.08 59.4591 88.24 58.6538 88.24ZM58.9498 86.872C59.4244 86.872 59.8324 86.7893 60.1738 86.624C60.5151 86.4533 60.7898 86.2373 60.9978 85.976C61.2058 85.7147 61.3418 85.4427 61.4058 85.16C61.4964 84.904 61.5471 84.616 61.5578 84.296C61.5738 83.976 61.5818 83.72 61.5818 83.528L62.1258 83.728C61.5978 83.808 61.1178 83.88 60.6858 83.944C60.2538 84.008 59.8618 84.072 59.5098 84.136C59.1631 84.1947 58.8538 84.2667 58.5818 84.352C58.3524 84.432 58.1471 84.528 57.9658 84.64C57.7898 84.752 57.6484 84.888 57.5418 85.048C57.4404 85.208 57.3898 85.4027 57.3898 85.632C57.3898 85.856 57.4458 86.064 57.5578 86.256C57.6698 86.4427 57.8404 86.592 58.0698 86.704C58.2991 86.816 58.5924 86.872 58.9498 86.872Z" fill="black"/>
<path d="M21.296 188.24C20.4693 188.24 19.7227 188.099 19.056 187.816C18.3947 187.528 17.848 187.12 17.416 186.592C16.9893 186.059 16.712 185.427 16.584 184.696L18.328 184.432C18.504 185.136 18.872 185.685 19.432 186.08C19.992 186.469 20.6453 186.664 21.392 186.664C21.856 186.664 22.2827 186.592 22.672 186.448C23.0613 186.299 23.3733 186.088 23.608 185.816C23.848 185.539 23.968 185.208 23.968 184.824C23.968 184.616 23.9307 184.432 23.856 184.272C23.7867 184.112 23.688 183.973 23.56 183.856C23.4373 183.733 23.2853 183.629 23.104 183.544C22.928 183.453 22.7333 183.376 22.52 183.312L19.568 182.44C19.28 182.355 18.9867 182.245 18.688 182.112C18.3893 181.973 18.1147 181.795 17.864 181.576C17.6187 181.352 17.4187 181.077 17.264 180.752C17.1093 180.421 17.032 180.021 17.032 179.552C17.032 178.843 17.2133 178.243 17.576 177.752C17.944 177.256 18.44 176.883 19.064 176.632C19.688 176.376 20.3867 176.248 21.16 176.248C21.9387 176.259 22.6347 176.397 23.248 176.664C23.8667 176.931 24.3787 177.315 24.784 177.816C25.1947 178.312 25.4773 178.915 25.632 179.624L23.84 179.928C23.76 179.496 23.5893 179.125 23.328 178.816C23.0667 178.501 22.7467 178.261 22.368 178.096C21.9893 177.925 21.5787 177.837 21.136 177.832C20.7093 177.821 20.3173 177.885 19.96 178.024C19.608 178.163 19.3253 178.357 19.112 178.608C18.904 178.859 18.8 179.147 18.8 179.472C18.8 179.792 18.8933 180.051 19.08 180.248C19.2667 180.445 19.496 180.603 19.768 180.72C20.0453 180.832 20.32 180.925 20.592 181L22.72 181.6C22.9867 181.675 23.288 181.776 23.624 181.904C23.9653 182.027 24.2933 182.2 24.608 182.424C24.928 182.648 25.192 182.947 25.4 183.32C25.608 183.688 25.712 184.152 25.712 184.712C25.712 185.293 25.5947 185.805 25.36 186.248C25.1253 186.685 24.8027 187.053 24.392 187.352C23.9867 187.645 23.5173 187.867 22.984 188.016C22.4507 188.165 21.888 188.24 21.296 188.24ZM31.2489 188.24C30.3902 188.24 29.6355 188.053 28.9849 187.68C28.3395 187.301 27.8355 186.776 27.4729 186.104C27.1155 185.427 26.9369 184.643 26.9369 183.752C26.9369 182.808 27.1129 181.989 27.4649 181.296C27.8222 180.603 28.3182 180.067 28.9529 179.688C29.5875 179.309 30.3262 179.12 31.1689 179.12C32.0489 179.12 32.7982 179.325 33.4169 179.736C34.0355 180.141 34.4969 180.72 34.8009 181.472C35.1102 182.224 35.2329 183.117 35.1689 184.152H33.4969V183.544C33.4862 182.541 33.2942 181.8 32.9209 181.32C32.5529 180.84 31.9902 180.6 31.2329 180.6C30.3955 180.6 29.7662 180.864 29.3449 181.392C28.9235 181.92 28.7129 182.683 28.7129 183.68C28.7129 184.629 28.9235 185.365 29.3449 185.888C29.7662 186.405 30.3742 186.664 31.1689 186.664C31.6915 186.664 32.1422 186.547 32.5209 186.312C32.9049 186.072 33.2035 185.731 33.4169 185.288L35.0569 185.808C34.7209 186.581 34.2115 187.181 33.5289 187.608C32.8462 188.029 32.0862 188.24 31.2489 188.24ZM28.1689 184.152V182.848H34.3369V184.152H28.1689ZM40.5238 192.08C40.0598 192.08 39.6091 192.008 39.1718 191.864C38.7398 191.72 38.3451 191.507 37.9878 191.224C37.6304 190.947 37.3344 190.603 37.0998 190.192L38.6438 189.408C38.8304 189.776 39.0971 190.045 39.4438 190.216C39.7904 190.387 40.1558 190.472 40.5398 190.472C41.0144 190.472 41.4198 190.387 41.7558 190.216C42.0918 190.051 42.3451 189.8 42.5158 189.464C42.6918 189.128 42.7771 188.712 42.7718 188.216V185.8H42.9718V179.36H44.4518V188.232C44.4518 188.461 44.4438 188.68 44.4278 188.888C44.4118 189.096 44.3824 189.304 44.3398 189.512C44.2171 190.093 43.9824 190.573 43.6358 190.952C43.2944 191.331 42.8571 191.613 42.3238 191.8C41.7958 191.987 41.1958 192.08 40.5238 192.08ZM40.3958 188.24C39.5904 188.24 38.8944 188.04 38.3078 187.64C37.7264 187.24 37.2758 186.696 36.9558 186.008C36.6411 185.315 36.4838 184.536 36.4838 183.672C36.4838 182.803 36.6438 182.027 36.9638 181.344C37.2838 180.656 37.7371 180.115 38.3238 179.72C38.9158 179.32 39.6171 179.12 40.4278 179.12C41.2438 179.12 41.9291 179.32 42.4838 179.72C43.0438 180.115 43.4651 180.656 43.7478 181.344C44.0358 182.032 44.1798 182.808 44.1798 183.672C44.1798 184.536 44.0358 185.312 43.7478 186C43.4598 186.688 43.0358 187.235 42.4758 187.64C41.9158 188.04 41.2224 188.24 40.3958 188.24ZM40.6278 186.728C41.1771 186.728 41.6251 186.597 41.9718 186.336C42.3184 186.075 42.5718 185.715 42.7318 185.256C42.8918 184.797 42.9718 184.269 42.9718 183.672C42.9718 183.075 42.8891 182.547 42.7238 182.088C42.5638 181.629 42.3131 181.272 41.9718 181.016C41.6358 180.76 41.2064 180.632 40.6838 180.632C40.1291 180.632 39.6731 180.768 39.3158 181.04C38.9584 181.312 38.6918 181.677 38.5158 182.136C38.3451 182.595 38.2598 183.107 38.2598 183.672C38.2598 184.243 38.3451 184.76 38.5158 185.224C38.6918 185.683 38.9531 186.048 39.2998 186.32C39.6518 186.592 40.0944 186.728 40.6278 186.728ZM49.9541 188.232C49.3568 188.232 48.8555 188.136 48.4501 187.944C48.0448 187.752 47.7141 187.501 47.4581 187.192C47.2075 186.877 47.0155 186.536 46.8821 186.168C46.7488 185.8 46.6581 185.44 46.6101 185.088C46.5621 184.736 46.5381 184.427 46.5381 184.16V179.36H48.2341V183.608C48.2341 183.944 48.2608 184.291 48.3141 184.648C48.3728 185 48.4795 185.328 48.6341 185.632C48.7941 185.936 49.0155 186.181 49.2981 186.368C49.5861 186.555 49.9595 186.648 50.4181 186.648C50.7168 186.648 50.9995 186.6 51.2661 186.504C51.5328 186.403 51.7648 186.243 51.9621 186.024C52.1648 185.805 52.3221 185.517 52.4341 185.16C52.5515 184.803 52.6101 184.368 52.6101 183.856L53.6501 184.248C53.6501 185.032 53.5035 185.725 53.2101 186.328C52.9168 186.925 52.4955 187.392 51.9461 187.728C51.3968 188.064 50.7328 188.232 49.9541 188.232ZM52.8101 188V185.504H52.6101V179.36H54.2981V188H52.8101ZM56.7019 177.944V176.32H58.3739V177.944H56.7019ZM56.7019 188V179.36H58.3739V188H56.7019ZM66.8403 188V183.752C66.8403 183.416 66.8109 183.072 66.7523 182.72C66.6989 182.363 66.5923 182.032 66.4323 181.728C66.2776 181.424 66.0563 181.179 65.7683 180.992C65.4856 180.805 65.1149 180.712 64.6562 180.712C64.3576 180.712 64.0749 180.763 63.8083 180.864C63.5416 180.96 63.3069 181.117 63.1043 181.336C62.9069 181.555 62.7496 181.843 62.6323 182.2C62.5203 182.557 62.4643 182.992 62.4643 183.504L61.4243 183.112C61.4243 182.328 61.5709 181.637 61.8643 181.04C62.1576 180.437 62.5789 179.968 63.1283 179.632C63.6776 179.296 64.3416 179.128 65.1203 179.128C65.7176 179.128 66.2189 179.224 66.6243 179.416C67.0296 179.608 67.3576 179.861 67.6083 180.176C67.8643 180.485 68.0589 180.824 68.1923 181.192C68.3256 181.56 68.4163 181.92 68.4643 182.272C68.5123 182.624 68.5363 182.933 68.5363 183.2V188H66.8403ZM60.7683 188V179.36H62.2643V181.856H62.4643V188H60.7683ZM74.2626 188.24C73.3986 188.24 72.6493 188.045 72.0146 187.656C71.38 187.267 70.8893 186.731 70.5426 186.048C70.2013 185.36 70.0306 184.568 70.0306 183.672C70.0306 182.771 70.2066 181.979 70.5586 181.296C70.9106 180.608 71.404 180.075 72.0386 179.696C72.6733 179.312 73.4146 179.12 74.2626 179.12C75.1266 179.12 75.876 179.315 76.5106 179.704C77.1453 180.093 77.636 180.629 77.9826 181.312C78.3293 181.995 78.5026 182.781 78.5026 183.672C78.5026 184.573 78.3266 185.368 77.9746 186.056C77.628 186.739 77.1373 187.275 76.5026 187.664C75.868 188.048 75.1213 188.24 74.2626 188.24ZM74.2626 186.664C75.0893 186.664 75.7053 186.387 76.1106 185.832C76.5213 185.272 76.7266 184.552 76.7266 183.672C76.7266 182.771 76.5186 182.051 76.1026 181.512C75.692 180.968 75.0786 180.696 74.2626 180.696C73.7026 180.696 73.2413 180.824 72.8786 181.08C72.516 181.331 72.2466 181.68 72.0706 182.128C71.8946 182.571 71.8066 183.085 71.8066 183.672C71.8066 184.579 72.0146 185.304 72.4306 185.848C72.8466 186.392 73.4573 186.664 74.2626 186.664ZM83.4084 188.232C82.3577 188.232 81.5017 188 80.8404 187.536C80.179 187.072 79.7737 186.419 79.6244 185.576L81.3364 185.312C81.443 185.76 81.6884 186.115 82.0724 186.376C82.4617 186.632 82.9444 186.76 83.5204 186.76C84.043 186.76 84.451 186.653 84.7444 186.44C85.043 186.227 85.1924 185.933 85.1924 185.56C85.1924 185.341 85.139 185.165 85.0324 185.032C84.931 184.893 84.715 184.763 84.3844 184.64C84.0537 184.517 83.5497 184.365 82.8724 184.184C82.131 183.992 81.5417 183.787 81.1044 183.568C80.6724 183.344 80.363 183.085 80.1764 182.792C79.995 182.493 79.9044 182.133 79.9044 181.712C79.9044 181.189 80.043 180.733 80.3204 180.344C80.5977 179.955 80.987 179.653 81.4884 179.44C81.995 179.227 82.587 179.12 83.2644 179.12C83.9257 179.12 84.515 179.224 85.0324 179.432C85.5497 179.64 85.9684 179.936 86.2884 180.32C86.6084 180.699 86.8004 181.144 86.8644 181.656L85.1524 181.968C85.0937 181.552 84.899 181.224 84.5684 180.984C84.2377 180.744 83.8084 180.613 83.2804 180.592C82.7737 180.571 82.363 180.656 82.0484 180.848C81.7337 181.035 81.5764 181.293 81.5764 181.624C81.5764 181.816 81.635 181.979 81.7524 182.112C81.875 182.245 82.1097 182.373 82.4564 182.496C82.803 182.619 83.315 182.765 83.9924 182.936C84.7177 183.123 85.2937 183.331 85.7204 183.56C86.147 183.784 86.451 184.053 86.6324 184.368C86.819 184.677 86.9124 185.053 86.9124 185.496C86.9124 186.349 86.6004 187.019 85.9764 187.504C85.3577 187.989 84.5017 188.232 83.4084 188.232Z" fill="black"/>
<path d="M22.432 120.488C22.432 120.872 22.4 121.232 22.336 121.568C22.2773 121.904 22.1627 122.224 21.992 122.528C21.848 122.816 21.6773 123.051 21.48 123.232C21.2827 123.408 21.0693 123.584 20.84 123.76C20.6107 123.931 20.368 124.152 20.112 124.424C19.904 124.659 19.7627 124.896 19.688 125.136C19.6133 125.371 19.576 125.629 19.576 125.912C19.576 126.115 19.6 126.301 19.648 126.472C19.696 126.648 19.776 126.803 19.888 126.936C20.0587 127.149 20.2747 127.299 20.536 127.384C20.7973 127.475 21.0693 127.52 21.352 127.52C21.6133 127.52 21.8587 127.485 22.088 127.416C22.3173 127.347 22.5067 127.24 22.656 127.096C22.8267 126.957 22.9493 126.784 23.024 126.576C23.104 126.373 23.1413 126.152 23.136 125.912H24.896C24.8533 126.408 24.7253 126.875 24.512 127.312C24.2987 127.755 24.0107 128.112 23.648 128.384C23.3387 128.624 22.9867 128.805 22.592 128.928C22.1973 129.051 21.8027 129.112 21.408 129.112C20.8427 129.112 20.3067 129.024 19.8 128.848C19.2987 128.672 18.88 128.387 18.544 127.992C18.304 127.715 18.12 127.397 17.992 127.04C17.864 126.683 17.8 126.317 17.8 125.944C17.8 125.432 17.9067 124.96 18.12 124.528C18.3387 124.096 18.616 123.704 18.952 123.352C19.128 123.165 19.304 122.997 19.48 122.848C19.6613 122.693 19.8293 122.544 19.984 122.4C20.144 122.256 20.272 122.099 20.368 121.928C20.5173 121.677 20.6027 121.456 20.624 121.264C20.6453 121.067 20.656 120.808 20.656 120.488H22.432ZM22.416 117.36V119.296H20.656V117.36H22.416ZM26.8231 126V114.48H28.5191L34.1911 123.04V114.48H35.8871V126H34.1911L28.5191 117.432V126H26.8231ZM41.952 126.24C41.0933 126.24 40.3387 126.053 39.688 125.68C39.0427 125.301 38.5387 124.776 38.176 124.104C37.8187 123.427 37.64 122.643 37.64 121.752C37.64 120.808 37.816 119.989 38.168 119.296C38.5253 118.603 39.0213 118.067 39.656 117.688C40.2907 117.309 41.0293 117.12 41.872 117.12C42.752 117.12 43.5013 117.325 44.12 117.736C44.7387 118.141 45.2 118.72 45.504 119.472C45.8133 120.224 45.936 121.117 45.872 122.152H44.2V121.544C44.1893 120.541 43.9973 119.8 43.624 119.32C43.256 118.84 42.6933 118.6 41.936 118.6C41.0987 118.6 40.4693 118.864 40.048 119.392C39.6267 119.92 39.416 120.683 39.416 121.68C39.416 122.629 39.6267 123.365 40.048 123.888C40.4693 124.405 41.0773 124.664 41.872 124.664C42.3947 124.664 42.8453 124.547 43.224 124.312C43.608 124.072 43.9067 123.731 44.12 123.288L45.76 123.808C45.424 124.581 44.9147 125.181 44.232 125.608C43.5493 126.029 42.7893 126.24 41.952 126.24ZM38.872 122.152V120.848H45.04V122.152H38.872ZM51.3629 126.24C50.4775 126.24 49.7255 126.043 49.1069 125.648C48.4882 125.253 48.0135 124.712 47.6829 124.024C47.3575 123.336 47.1922 122.555 47.1869 121.68C47.1922 120.789 47.3629 120.003 47.6989 119.32C48.0349 118.632 48.5149 118.093 49.1389 117.704C49.7629 117.315 50.5122 117.12 51.3869 117.12C52.3309 117.12 53.1362 117.355 53.8029 117.824C54.4749 118.293 54.9175 118.936 55.1309 119.752L53.4669 120.232C53.3015 119.747 53.0295 119.371 52.6509 119.104C52.2775 118.832 51.8482 118.696 51.3629 118.696C50.8135 118.696 50.3629 118.827 50.0109 119.088C49.6589 119.344 49.3975 119.696 49.2269 120.144C49.0562 120.592 48.9682 121.104 48.9629 121.68C48.9682 122.571 49.1709 123.291 49.5709 123.84C49.9762 124.389 50.5735 124.664 51.3629 124.664C51.9015 124.664 52.3362 124.541 52.6669 124.296C53.0029 124.045 53.2589 123.688 53.4349 123.224L55.1309 123.624C54.8482 124.467 54.3815 125.115 53.7309 125.568C53.0802 126.016 52.2909 126.24 51.3629 126.24ZM60.3583 126.24C59.4996 126.24 58.7449 126.053 58.0943 125.68C57.4489 125.301 56.9449 124.776 56.5822 124.104C56.2249 123.427 56.0463 122.643 56.0463 121.752C56.0463 120.808 56.2223 119.989 56.5743 119.296C56.9316 118.603 57.4276 118.067 58.0623 117.688C58.6969 117.309 59.4356 117.12 60.2783 117.12C61.1583 117.12 61.9076 117.325 62.5263 117.736C63.1449 118.141 63.6063 118.72 63.9103 119.472C64.2196 120.224 64.3423 121.117 64.2783 122.152H62.6063V121.544C62.5956 120.541 62.4036 119.8 62.0303 119.32C61.6623 118.84 61.0996 118.6 60.3423 118.6C59.5049 118.6 58.8756 118.864 58.4543 119.392C58.0329 119.92 57.8223 120.683 57.8223 121.68C57.8223 122.629 58.0329 123.365 58.4543 123.888C58.8756 124.405 59.4836 124.664 60.2783 124.664C60.8009 124.664 61.2516 124.547 61.6303 124.312C62.0143 124.072 62.3129 123.731 62.5263 123.288L64.1663 123.808C63.8303 124.581 63.3209 125.181 62.6383 125.608C61.9556 126.029 61.1956 126.24 60.3583 126.24ZM57.2783 122.152V120.848H63.4462V122.152H57.2783ZM69.3771 126.232C68.3265 126.232 67.4705 126 66.8091 125.536C66.1478 125.072 65.7425 124.419 65.5931 123.576L67.3051 123.312C67.4118 123.76 67.6571 124.115 68.0411 124.376C68.4305 124.632 68.9131 124.76 69.4891 124.76C70.0118 124.76 70.4198 124.653 70.7131 124.44C71.0118 124.227 71.1611 123.933 71.1611 123.56C71.1611 123.341 71.1078 123.165 71.0011 123.032C70.8998 122.893 70.6838 122.763 70.3531 122.64C70.0225 122.517 69.5185 122.365 68.8411 122.184C68.0998 121.992 67.5105 121.787 67.0731 121.568C66.6411 121.344 66.3318 121.085 66.1451 120.792C65.9638 120.493 65.8731 120.133 65.8731 119.712C65.8731 119.189 66.0118 118.733 66.2891 118.344C66.5665 117.955 66.9558 117.653 67.4571 117.44C67.9638 117.227 68.5558 117.12 69.2331 117.12C69.8945 117.12 70.4838 117.224 71.0011 117.432C71.5185 117.64 71.9371 117.936 72.2571 118.32C72.5771 118.699 72.7691 119.144 72.8331 119.656L71.1211 119.968C71.0625 119.552 70.8678 119.224 70.5371 118.984C70.2065 118.744 69.7771 118.613 69.2491 118.592C68.7425 118.571 68.3318 118.656 68.0171 118.848C67.7025 119.035 67.5451 119.293 67.5451 119.624C67.5451 119.816 67.6038 119.979 67.7211 120.112C67.8438 120.245 68.0785 120.373 68.4251 120.496C68.7718 120.619 69.2838 120.765 69.9611 120.936C70.6865 121.123 71.2625 121.331 71.6891 121.56C72.1158 121.784 72.4198 122.053 72.6011 122.368C72.7878 122.677 72.8811 123.053 72.8811 123.496C72.8811 124.349 72.5691 125.019 71.9451 125.504C71.3265 125.989 70.4705 126.232 69.3771 126.232ZM74.8113 115.944V114.32H76.4833V115.944H74.8113ZM74.8113 126V117.36H76.4833V126H74.8113ZM83.8296 126C83.2856 126.107 82.7523 126.152 82.2296 126.136C81.707 126.12 81.2403 126.019 80.8296 125.832C80.419 125.645 80.1096 125.352 79.9016 124.952C79.715 124.595 79.6136 124.232 79.5976 123.864C79.587 123.491 79.5816 123.069 79.5816 122.6V114.96H81.2616V122.52C81.2616 122.867 81.2643 123.168 81.2696 123.424C81.2803 123.68 81.3363 123.896 81.4376 124.072C81.6296 124.403 81.9336 124.592 82.3496 124.64C82.771 124.683 83.2643 124.664 83.8296 124.584V126ZM77.9256 118.704V117.36H83.8296V118.704H77.9256ZM88.0913 126.24C87.4513 126.24 86.9153 126.123 86.4833 125.888C86.0513 125.648 85.7233 125.333 85.4993 124.944C85.2806 124.549 85.1713 124.117 85.1713 123.648C85.1713 123.211 85.2486 122.827 85.4033 122.496C85.5579 122.165 85.7873 121.885 86.0913 121.656C86.3953 121.421 86.7686 121.232 87.2113 121.088C87.5953 120.976 88.0299 120.877 88.5153 120.792C89.0006 120.707 89.5099 120.627 90.0433 120.552C90.5819 120.477 91.1153 120.403 91.6433 120.328L91.0353 120.664C91.0459 119.987 90.9019 119.485 90.6033 119.16C90.3099 118.829 89.8033 118.664 89.0833 118.664C88.6299 118.664 88.2139 118.771 87.8353 118.984C87.4566 119.192 87.1926 119.539 87.0433 120.024L85.4833 119.544C85.6966 118.803 86.1019 118.213 86.6993 117.776C87.3019 117.339 88.1019 117.12 89.0993 117.12C89.8726 117.12 90.5446 117.253 91.1153 117.52C91.6913 117.781 92.1126 118.197 92.3793 118.768C92.5179 119.051 92.6033 119.349 92.6353 119.664C92.6673 119.979 92.6833 120.317 92.6833 120.68V126H91.2033V124.024L91.4913 124.28C91.1339 124.941 90.6779 125.435 90.1233 125.76C89.5739 126.08 88.8966 126.24 88.0913 126.24ZM88.3873 124.872C88.8619 124.872 89.2699 124.789 89.6113 124.624C89.9526 124.453 90.2273 124.237 90.4353 123.976C90.6433 123.715 90.7793 123.443 90.8433 123.16C90.9339 122.904 90.9846 122.616 90.9953 122.296C91.0113 121.976 91.0193 121.72 91.0193 121.528L91.5633 121.728C91.0353 121.808 90.5553 121.88 90.1233 121.944C89.6913 122.008 89.2993 122.072 88.9473 122.136C88.6006 122.195 88.2913 122.267 88.0193 122.352C87.7899 122.432 87.5846 122.528 87.4033 122.64C87.2273 122.752 87.0859 122.888 86.9793 123.048C86.8779 123.208 86.8273 123.403 86.8273 123.632C86.8273 123.856 86.8833 124.064 86.9953 124.256C87.1073 124.443 87.2779 124.592 87.5073 124.704C87.7366 124.816 88.0299 124.872 88.3873 124.872ZM98.0646 126.232C97.014 126.232 96.158 126 95.4966 125.536C94.8353 125.072 94.43 124.419 94.2806 123.576L95.9926 123.312C96.0993 123.76 96.3446 124.115 96.7286 124.376C97.118 124.632 97.6006 124.76 98.1766 124.76C98.6993 124.76 99.1073 124.653 99.4006 124.44C99.6993 124.227 99.8486 123.933 99.8486 123.56C99.8486 123.341 99.7953 123.165 99.6886 123.032C99.5873 122.893 99.3713 122.763 99.0406 122.64C98.71 122.517 98.206 122.365 97.5286 122.184C96.7873 121.992 96.198 121.787 95.7606 121.568C95.3286 121.344 95.0193 121.085 94.8326 120.792C94.6513 120.493 94.5606 120.133 94.5606 119.712C94.5606 119.189 94.6993 118.733 94.9766 118.344C95.254 117.955 95.6433 117.653 96.1446 117.44C96.6513 117.227 97.2433 117.12 97.9206 117.12C98.582 117.12 99.1713 117.224 99.6886 117.432C100.206 117.64 100.625 117.936 100.945 118.32C101.265 118.699 101.457 119.144 101.521 119.656L99.8086 119.968C99.75 119.552 99.5553 119.224 99.2246 118.984C98.894 118.744 98.4646 118.613 97.9366 118.592C97.43 118.571 97.0193 118.656 96.7046 118.848C96.39 119.035 96.2326 119.293 96.2326 119.624C96.2326 119.816 96.2913 119.979 96.4086 120.112C96.5313 120.245 96.766 120.373 97.1126 120.496C97.4593 120.619 97.9713 120.765 98.6486 120.936C99.374 121.123 99.95 121.331 100.377 121.56C100.803 121.784 101.107 122.053 101.289 122.368C101.475 122.677 101.569 123.053 101.569 123.496C101.569 124.349 101.257 125.019 100.633 125.504C100.014 125.989 99.158 126.232 98.0646 126.232ZM108.982 126.24C108.342 126.24 107.806 126.123 107.374 125.888C106.942 125.648 106.614 125.333 106.39 124.944C106.171 124.549 106.062 124.117 106.062 123.648C106.062 123.211 106.139 122.827 106.294 122.496C106.449 122.165 106.678 121.885 106.982 121.656C107.286 121.421 107.659 121.232 108.102 121.088C108.486 120.976 108.921 120.877 109.406 120.792C109.891 120.707 110.401 120.627 110.934 120.552C111.473 120.477 112.006 120.403 112.534 120.328L111.926 120.664C111.937 119.987 111.793 119.485 111.494 119.16C111.201 118.829 110.694 118.664 109.974 118.664C109.521 118.664 109.105 118.771 108.726 118.984C108.347 119.192 108.083 119.539 107.934 120.024L106.374 119.544C106.587 118.803 106.993 118.213 107.59 117.776C108.193 117.339 108.993 117.12 109.99 117.12C110.763 117.12 111.435 117.253 112.006 117.52C112.582 117.781 113.003 118.197 113.27 118.768C113.409 119.051 113.494 119.349 113.526 119.664C113.558 119.979 113.574 120.317 113.574 120.68V126H112.094V124.024L112.382 124.28C112.025 124.941 111.569 125.435 111.014 125.76C110.465 126.08 109.787 126.24 108.982 126.24ZM109.278 124.872C109.753 124.872 110.161 124.789 110.502 124.624C110.843 124.453 111.118 124.237 111.326 123.976C111.534 123.715 111.67 123.443 111.734 123.16C111.825 122.904 111.875 122.616 111.886 122.296C111.902 121.976 111.91 121.72 111.91 121.528L112.454 121.728C111.926 121.808 111.446 121.88 111.014 121.944C110.582 122.008 110.19 122.072 109.838 122.136C109.491 122.195 109.182 122.267 108.91 122.352C108.681 122.432 108.475 122.528 108.294 122.64C108.118 122.752 107.977 122.888 107.87 123.048C107.769 123.208 107.718 123.403 107.718 123.632C107.718 123.856 107.774 124.064 107.886 124.256C107.998 124.443 108.169 124.592 108.398 124.704C108.627 124.816 108.921 124.872 109.278 124.872ZM116.335 129.84L118.007 125.288L118.031 126.632L114.263 117.36H116.007L118.823 124.52H118.311L120.999 117.36H122.695L117.927 129.84H116.335ZM127.204 126.232C126.607 126.232 126.105 126.136 125.7 125.944C125.295 125.752 124.964 125.501 124.708 125.192C124.457 124.877 124.265 124.536 124.132 124.168C123.999 123.8 123.908 123.44 123.86 123.088C123.812 122.736 123.788 122.427 123.788 122.16V117.36H125.484V121.608C125.484 121.944 125.511 122.291 125.564 122.648C125.623 123 125.729 123.328 125.884 123.632C126.044 123.936 126.265 124.181 126.548 124.368C126.836 124.555 127.209 124.648 127.668 124.648C127.967 124.648 128.249 124.6 128.516 124.504C128.783 124.403 129.015 124.243 129.212 124.024C129.415 123.805 129.572 123.517 129.684 123.16C129.801 122.803 129.86 122.368 129.86 121.856L130.9 122.248C130.9 123.032 130.753 123.725 130.46 124.328C130.167 124.925 129.745 125.392 129.196 125.728C128.647 126.064 127.983 126.232 127.204 126.232ZM130.06 126V123.504H129.86V117.36H131.548V126H130.06ZM137.224 126.24C136.419 126.24 135.723 126.04 135.136 125.64C134.555 125.24 134.104 124.696 133.784 124.008C133.469 123.315 133.312 122.536 133.312 121.672C133.312 120.803 133.472 120.027 133.792 119.344C134.112 118.656 134.565 118.115 135.152 117.72C135.744 117.32 136.445 117.12 137.256 117.12C138.072 117.12 138.757 117.32 139.312 117.72C139.872 118.115 140.293 118.656 140.576 119.344C140.864 120.032 141.008 120.808 141.008 121.672C141.008 122.536 140.864 123.312 140.576 124C140.288 124.688 139.864 125.235 139.304 125.64C138.744 126.04 138.051 126.24 137.224 126.24ZM137.456 124.728C138.005 124.728 138.453 124.597 138.8 124.336C139.147 124.075 139.4 123.715 139.56 123.256C139.72 122.797 139.8 122.269 139.8 121.672C139.8 121.075 139.717 120.547 139.552 120.088C139.392 119.629 139.141 119.272 138.8 119.016C138.464 118.76 138.035 118.632 137.512 118.632C136.957 118.632 136.501 118.768 136.144 119.04C135.787 119.312 135.52 119.677 135.344 120.136C135.173 120.595 135.088 121.107 135.088 121.672C135.088 122.243 135.173 122.76 135.344 123.224C135.52 123.683 135.781 124.048 136.128 124.32C136.48 124.592 136.923 124.728 137.456 124.728ZM139.8 126V119.784H139.608V114.48H141.288V126H139.8ZM145.966 126.24C145.326 126.24 144.79 126.123 144.358 125.888C143.926 125.648 143.598 125.333 143.374 124.944C143.156 124.549 143.046 124.117 143.046 123.648C143.046 123.211 143.124 122.827 143.278 122.496C143.433 122.165 143.662 121.885 143.966 121.656C144.27 121.421 144.644 121.232 145.086 121.088C145.47 120.976 145.905 120.877 146.39 120.792C146.876 120.707 147.385 120.627 147.918 120.552C148.457 120.477 148.99 120.403 149.518 120.328L148.91 120.664C148.921 119.987 148.777 119.485 148.478 119.16C148.185 118.829 147.678 118.664 146.958 118.664C146.505 118.664 146.089 118.771 145.71 118.984C145.332 119.192 145.068 119.539 144.918 120.024L143.358 119.544C143.572 118.803 143.977 118.213 144.574 117.776C145.177 117.339 145.977 117.12 146.974 117.12C147.748 117.12 148.42 117.253 148.99 117.52C149.566 117.781 149.988 118.197 150.254 118.768C150.393 119.051 150.478 119.349 150.51 119.664C150.542 119.979 150.558 120.317 150.558 120.68V126H149.078V124.024L149.366 124.28C149.009 124.941 148.553 125.435 147.998 125.76C147.449 126.08 146.772 126.24 145.966 126.24ZM146.262 124.872C146.737 124.872 147.145 124.789 147.486 124.624C147.828 124.453 148.102 124.237 148.31 123.976C148.518 123.715 148.654 123.443 148.718 123.16C148.809 122.904 148.86 122.616 148.87 122.296C148.886 121.976 148.894 121.72 148.894 121.528L149.438 121.728C148.91 121.808 148.43 121.88 147.998 121.944C147.566 122.008 147.174 122.072 146.822 122.136C146.476 122.195 146.166 122.267 145.894 122.352C145.665 122.432 145.46 122.528 145.278 122.64C145.102 122.752 144.961 122.888 144.854 123.048C144.753 123.208 144.702 123.403 144.702 123.632C144.702 123.856 144.758 124.064 144.87 124.256C144.982 124.443 145.153 124.592 145.382 124.704C145.612 124.816 145.905 124.872 146.262 124.872ZM154.78 122.872C154.78 122.488 154.809 122.128 154.868 121.792C154.932 121.456 155.049 121.136 155.22 120.832C155.364 120.544 155.532 120.312 155.724 120.136C155.921 119.955 156.134 119.779 156.364 119.608C156.598 119.432 156.844 119.208 157.1 118.936C157.313 118.701 157.454 118.464 157.524 118.224C157.598 117.984 157.636 117.725 157.636 117.448C157.636 117.245 157.612 117.056 157.564 116.88C157.516 116.704 157.436 116.552 157.324 116.424C157.153 116.211 156.937 116.061 156.676 115.976C156.414 115.885 156.142 115.84 155.86 115.84C155.604 115.84 155.358 115.875 155.124 115.944C154.894 116.013 154.702 116.12 154.548 116.264C154.382 116.403 154.26 116.576 154.18 116.784C154.105 116.987 154.07 117.208 154.076 117.448H152.316C152.358 116.947 152.486 116.477 152.7 116.04C152.913 115.603 153.201 115.248 153.564 114.976C153.873 114.731 154.225 114.549 154.62 114.432C155.014 114.309 155.409 114.248 155.804 114.248C156.369 114.248 156.902 114.336 157.404 114.512C157.91 114.688 158.332 114.973 158.668 115.368C158.913 115.645 159.097 115.963 159.22 116.32C159.348 116.672 159.412 117.037 159.412 117.416C159.412 117.923 159.302 118.392 159.084 118.824C158.87 119.256 158.596 119.651 158.26 120.008C158.084 120.195 157.905 120.365 157.724 120.52C157.542 120.669 157.374 120.816 157.22 120.96C157.065 121.104 156.937 121.261 156.836 121.432C156.692 121.677 156.609 121.899 156.588 122.096C156.566 122.288 156.556 122.547 156.556 122.872H154.78ZM154.788 126V124.064H156.556V126H154.788ZM169.35 126.24C168.198 126.24 167.217 125.989 166.406 125.488C165.595 124.981 164.974 124.277 164.542 123.376C164.115 122.475 163.902 121.429 163.902 120.24C163.902 119.051 164.115 118.005 164.542 117.104C164.974 116.203 165.595 115.501 166.406 115C167.217 114.493 168.198 114.24 169.35 114.24C170.678 114.24 171.777 114.576 172.646 115.248C173.521 115.92 174.129 116.824 174.47 117.96L172.774 118.416C172.55 117.611 172.15 116.979 171.574 116.52C171.003 116.061 170.262 115.832 169.35 115.832C168.534 115.832 167.854 116.016 167.31 116.384C166.766 116.752 166.355 117.267 166.078 117.928C165.806 118.589 165.67 119.36 165.67 120.24C165.665 121.12 165.798 121.891 166.07 122.552C166.347 123.213 166.758 123.728 167.302 124.096C167.851 124.464 168.534 124.648 169.35 124.648C170.262 124.648 171.003 124.419 171.574 123.96C172.15 123.496 172.55 122.864 172.774 122.064L174.47 122.52C174.129 123.656 173.521 124.56 172.646 125.232C171.777 125.904 170.678 126.24 169.35 126.24ZM179.981 126.24C179.117 126.24 178.368 126.045 177.733 125.656C177.099 125.267 176.608 124.731 176.261 124.048C175.92 123.36 175.749 122.568 175.749 121.672C175.749 120.771 175.925 119.979 176.277 119.296C176.629 118.608 177.123 118.075 177.757 117.696C178.392 117.312 179.133 117.12 179.981 117.12C180.845 117.12 181.595 117.315 182.229 117.704C182.864 118.093 183.355 118.629 183.701 119.312C184.048 119.995 184.221 120.781 184.221 121.672C184.221 122.573 184.045 123.368 183.693 124.056C183.347 124.739 182.856 125.275 182.221 125.664C181.587 126.048 180.84 126.24 179.981 126.24ZM179.981 124.664C180.808 124.664 181.424 124.387 181.829 123.832C182.24 123.272 182.445 122.552 182.445 121.672C182.445 120.771 182.237 120.051 181.821 119.512C181.411 118.968 180.797 118.696 179.981 118.696C179.421 118.696 178.96 118.824 178.597 119.08C178.235 119.331 177.965 119.68 177.789 120.128C177.613 120.571 177.525 121.085 177.525 121.672C177.525 122.579 177.733 123.304 178.149 123.848C178.565 124.392 179.176 124.664 179.981 124.664ZM192.043 126V121.752C192.043 121.416 192.014 121.072 191.955 120.72C191.902 120.363 191.795 120.032 191.635 119.728C191.481 119.424 191.259 119.179 190.971 118.992C190.689 118.805 190.318 118.712 189.859 118.712C189.561 118.712 189.278 118.763 189.011 118.864C188.745 118.96 188.51 119.117 188.307 119.336C188.11 119.555 187.953 119.843 187.835 120.2C187.723 120.557 187.667 120.992 187.667 121.504L186.627 121.112C186.627 120.328 186.774 119.637 187.067 119.04C187.361 118.437 187.782 117.968 188.331 117.632C188.881 117.296 189.545 117.128 190.323 117.128C190.921 117.128 191.422 117.224 191.827 117.416C192.233 117.608 192.561 117.861 192.811 118.176C193.067 118.485 193.262 118.824 193.395 119.192C193.529 119.56 193.619 119.92 193.667 120.272C193.715 120.624 193.739 120.933 193.739 121.2V126H192.043ZM185.971 126V117.36H187.467V119.856H187.667V126H185.971ZM200.767 126C200.223 126.107 199.69 126.152 199.167 126.136C198.644 126.12 198.178 126.019 197.767 125.832C197.356 125.645 197.047 125.352 196.839 124.952C196.652 124.595 196.551 124.232 196.535 123.864C196.524 123.491 196.519 123.069 196.519 122.6V114.96H198.199V122.52C198.199 122.867 198.202 123.168 198.207 123.424C198.218 123.68 198.274 123.896 198.375 124.072C198.567 124.403 198.871 124.592 199.287 124.64C199.708 124.683 200.202 124.664 200.767 124.584V126ZM194.863 118.704V117.36H200.767V118.704H194.863ZM205.029 126.24C204.389 126.24 203.853 126.123 203.421 125.888C202.989 125.648 202.661 125.333 202.437 124.944C202.218 124.549 202.109 124.117 202.109 123.648C202.109 123.211 202.186 122.827 202.341 122.496C202.495 122.165 202.725 121.885 203.029 121.656C203.333 121.421 203.706 121.232 204.149 121.088C204.533 120.976 204.967 120.877 205.453 120.792C205.938 120.707 206.447 120.627 206.981 120.552C207.519 120.477 208.053 120.403 208.581 120.328L207.973 120.664C207.983 119.987 207.839 119.485 207.541 119.16C207.247 118.829 206.741 118.664 206.021 118.664C205.567 118.664 205.151 118.771 204.773 118.984C204.394 119.192 204.13 119.539 203.981 120.024L202.421 119.544C202.634 118.803 203.039 118.213 203.637 117.776C204.239 117.339 205.039 117.12 206.037 117.12C206.81 117.12 207.482 117.253 208.053 117.52C208.629 117.781 209.05 118.197 209.317 118.768C209.455 119.051 209.541 119.349 209.573 119.664C209.605 119.979 209.621 120.317 209.621 120.68V126H208.141V124.024L208.429 124.28C208.071 124.941 207.615 125.435 207.061 125.76C206.511 126.08 205.834 126.24 205.029 126.24ZM205.325 124.872C205.799 124.872 206.207 124.789 206.549 124.624C206.89 124.453 207.165 124.237 207.373 123.976C207.581 123.715 207.717 123.443 207.781 123.16C207.871 122.904 207.922 122.616 207.933 122.296C207.949 121.976 207.957 121.72 207.957 121.528L208.501 121.728C207.973 121.808 207.493 121.88 207.061 121.944C206.629 122.008 206.237 122.072 205.885 122.136C205.538 122.195 205.229 122.267 204.957 122.352C204.727 122.432 204.522 122.528 204.341 122.64C204.165 122.752 204.023 122.888 203.917 123.048C203.815 123.208 203.765 123.403 203.765 123.632C203.765 123.856 203.821 124.064 203.933 124.256C204.045 124.443 204.215 124.592 204.445 124.704C204.674 124.816 204.967 124.872 205.325 124.872ZM215.394 126.24C214.509 126.24 213.757 126.043 213.138 125.648C212.519 125.253 212.045 124.712 211.714 124.024C211.389 123.336 211.223 122.555 211.218 121.68C211.223 120.789 211.394 120.003 211.73 119.32C212.066 118.632 212.546 118.093 213.17 117.704C213.794 117.315 214.543 117.12 215.418 117.12C216.362 117.12 217.167 117.355 217.834 117.824C218.506 118.293 218.949 118.936 219.162 119.752L217.498 120.232C217.333 119.747 217.061 119.371 216.682 119.104C216.309 118.832 215.879 118.696 215.394 118.696C214.845 118.696 214.394 118.827 214.042 119.088C213.69 119.344 213.429 119.696 213.258 120.144C213.087 120.592 212.999 121.104 212.994 121.68C212.999 122.571 213.202 123.291 213.602 123.84C214.007 124.389 214.605 124.664 215.394 124.664C215.933 124.664 216.367 124.541 216.698 124.296C217.034 124.045 217.29 123.688 217.466 123.224L219.162 123.624C218.879 124.467 218.413 125.115 217.762 125.568C217.111 126.016 216.322 126.24 215.394 126.24ZM225.736 126C225.192 126.107 224.659 126.152 224.136 126.136C223.613 126.12 223.147 126.019 222.736 125.832C222.325 125.645 222.016 125.352 221.808 124.952C221.621 124.595 221.52 124.232 221.504 123.864C221.493 123.491 221.488 123.069 221.488 122.6V114.96H223.168V122.52C223.168 122.867 223.171 123.168 223.176 123.424C223.187 123.68 223.243 123.896 223.344 124.072C223.536 124.403 223.84 124.592 224.256 124.64C224.677 124.683 225.171 124.664 225.736 124.584V126ZM219.832 118.704V117.36H225.736V118.704H219.832ZM229.998 126.24C229.358 126.24 228.822 126.123 228.39 125.888C227.958 125.648 227.63 125.333 227.406 124.944C227.187 124.549 227.078 124.117 227.078 123.648C227.078 123.211 227.155 122.827 227.31 122.496C227.464 122.165 227.694 121.885 227.998 121.656C228.302 121.421 228.675 121.232 229.118 121.088C229.502 120.976 229.936 120.877 230.422 120.792C230.907 120.707 231.416 120.627 231.95 120.552C232.488 120.477 233.022 120.403 233.55 120.328L232.942 120.664C232.952 119.987 232.808 119.485 232.51 119.16C232.216 118.829 231.71 118.664 230.99 118.664C230.536 118.664 230.12 118.771 229.742 118.984C229.363 119.192 229.099 119.539 228.95 120.024L227.39 119.544C227.603 118.803 228.008 118.213 228.606 117.776C229.208 117.339 230.008 117.12 231.006 117.12C231.779 117.12 232.451 117.253 233.022 117.52C233.598 117.781 234.019 118.197 234.286 118.768C234.424 119.051 234.51 119.349 234.542 119.664C234.574 119.979 234.59 120.317 234.59 120.68V126H233.11V124.024L233.398 124.28C233.04 124.941 232.584 125.435 232.03 125.76C231.48 126.08 230.803 126.24 229.998 126.24ZM230.294 124.872C230.768 124.872 231.176 124.789 231.518 124.624C231.859 124.453 232.134 124.237 232.342 123.976C232.55 123.715 232.686 123.443 232.75 123.16C232.84 122.904 232.891 122.616 232.902 122.296C232.918 121.976 232.926 121.72 232.926 121.528L233.47 121.728C232.942 121.808 232.462 121.88 232.03 121.944C231.598 122.008 231.206 122.072 230.854 122.136C230.507 122.195 230.198 122.267 229.926 122.352C229.696 122.432 229.491 122.528 229.31 122.64C229.134 122.752 228.992 122.888 228.886 123.048C228.784 123.208 228.734 123.403 228.734 123.632C228.734 123.856 228.79 124.064 228.902 124.256C229.014 124.443 229.184 124.592 229.414 124.704C229.643 124.816 229.936 124.872 230.294 124.872ZM242.731 126V121.752C242.731 121.416 242.702 121.072 242.643 120.72C242.59 120.363 242.483 120.032 242.323 119.728C242.168 119.424 241.947 119.179 241.659 118.992C241.376 118.805 241.006 118.712 240.547 118.712C240.248 118.712 239.966 118.763 239.699 118.864C239.432 118.96 239.198 119.117 238.995 119.336C238.798 119.555 238.64 119.843 238.523 120.2C238.411 120.557 238.355 120.992 238.355 121.504L237.315 121.112C237.315 120.328 237.462 119.637 237.755 119.04C238.048 118.437 238.47 117.968 239.019 117.632C239.568 117.296 240.232 117.128 241.011 117.128C241.608 117.128 242.11 117.224 242.515 117.416C242.92 117.608 243.248 117.861 243.499 118.176C243.755 118.485 243.95 118.824 244.083 119.192C244.216 119.56 244.307 119.92 244.355 120.272C244.403 120.624 244.427 120.933 244.427 121.2V126H242.731ZM236.659 126V117.36H238.155V119.856H238.355V126H236.659ZM250.153 126.24C249.289 126.24 248.54 126.045 247.905 125.656C247.271 125.267 246.78 124.731 246.433 124.048C246.092 123.36 245.921 122.568 245.921 121.672C245.921 120.771 246.097 119.979 246.449 119.296C246.801 118.608 247.295 118.075 247.929 117.696C248.564 117.312 249.305 117.12 250.153 117.12C251.017 117.12 251.767 117.315 252.401 117.704C253.036 118.093 253.527 118.629 253.873 119.312C254.22 119.995 254.393 120.781 254.393 121.672C254.393 122.573 254.217 123.368 253.865 124.056C253.519 124.739 253.028 125.275 252.393 125.664C251.759 126.048 251.012 126.24 250.153 126.24ZM250.153 124.664C250.98 124.664 251.596 124.387 252.001 123.832C252.412 123.272 252.617 122.552 252.617 121.672C252.617 120.771 252.409 120.051 251.993 119.512C251.583 118.968 250.969 118.696 250.153 118.696C249.593 118.696 249.132 118.824 248.769 119.08C248.407 119.331 248.137 119.68 247.961 120.128C247.785 120.571 247.697 121.085 247.697 121.672C247.697 122.579 247.905 123.304 248.321 123.848C248.737 124.392 249.348 124.664 250.153 124.664ZM259.299 126.232C258.248 126.232 257.392 126 256.731 125.536C256.07 125.072 255.664 124.419 255.515 123.576L257.227 123.312C257.334 123.76 257.579 124.115 257.963 124.376C258.352 124.632 258.835 124.76 259.411 124.76C259.934 124.76 260.342 124.653 260.635 124.44C260.934 124.227 261.083 123.933 261.083 123.56C261.083 123.341 261.03 123.165 260.923 123.032C260.822 122.893 260.606 122.763 260.275 122.64C259.944 122.517 259.44 122.365 258.763 122.184C258.022 121.992 257.432 121.787 256.995 121.568C256.563 121.344 256.254 121.085 256.067 120.792C255.886 120.493 255.795 120.133 255.795 119.712C255.795 119.189 255.934 118.733 256.211 118.344C256.488 117.955 256.878 117.653 257.379 117.44C257.886 117.227 258.478 117.12 259.155 117.12C259.816 117.12 260.406 117.224 260.923 117.432C261.44 117.64 261.859 117.936 262.179 118.32C262.499 118.699 262.691 119.144 262.755 119.656L261.043 119.968C260.984 119.552 260.79 119.224 260.459 118.984C260.128 118.744 259.699 118.613 259.171 118.592C258.664 118.571 258.254 118.656 257.939 118.848C257.624 119.035 257.467 119.293 257.467 119.624C257.467 119.816 257.526 119.979 257.643 120.112C257.766 120.245 258 120.373 258.347 120.496C258.694 120.619 259.206 120.765 259.883 120.936C260.608 121.123 261.184 121.331 261.611 121.56C262.038 121.784 262.342 122.053 262.523 122.368C262.71 122.677 262.803 123.053 262.803 123.496C262.803 124.349 262.491 125.019 261.867 125.504C261.248 125.989 260.392 126.232 259.299 126.232Z" fill="black"/>
<path d="M17 127H263.451V127.4H17V127Z" fill="black"/>
</svg>
